<svg width="108" height="30" xmlns="http://www.w3.org/2000/svg"><defs><path id="a" fill-rule="evenodd" clip-rule="evenodd" d="M28.08 0h4.968v30H28.08V0ZM50.33 20.493c0 4.648-3.888 5.07-5.184 5.07-3.024 0-3.456-2.746-3.456-4.225V9.718H36.72v11.409c0 2.746.864 5.282 2.592 6.76C40.825 29.367 42.769 30 45.145 30c1.728 0 3.888-.422 5.184-1.69V30h4.968V9.718h-4.968v10.775Zm9.718-18.17h4.968v7.395h3.672v4.648h-3.672V30h-4.968V14.366h-3.672V9.718h3.672V2.324Zm24.194 21.55c-1.08.845-2.592 1.479-4.104 1.479-3.456 0-5.832-2.535-5.832-5.916 0-3.38 2.376-5.704 5.832-5.704 1.512 0 3.024.423 4.104 1.48l.648.633 3.456-3.17-.864-.633a11.217 11.217 0 0 0-7.344-2.746c-6.048 0-10.584 4.436-10.584 10.352C69.553 25.563 74.089 30 80.137 30c2.808 0 5.4-1.056 7.344-2.747l.864-.633-3.456-3.38-.648.633Zm16.2-14.577c2.376 0 3.888.634 5.4 2.112 1.512 1.48 2.16 4.014 2.16 6.761v11.62h-4.968V17.958l.001-.28c.013-1.519.033-3.946-2.809-3.946-1.296 0-4.536.423-4.536 5.07V30H90.72V0h4.968v10.986c1.296-1.268 3.024-1.69 4.752-1.69Zm-79.273 13.31c-1.728 1.69-4.32 2.746-7.128 2.746-5.4 0-9.288-4.225-9.288-9.93 0-5.704 3.888-9.93 9.504-9.93 2.592 0 5.184 1.057 7.128 2.959l.648.633 3.24-3.169-.648-.633a14.712 14.712 0 0 0-10.368-4.226C6.048.845 0 7.183 0 15.422 0 23.663 6.048 30 14.04 30c3.888 0 7.776-1.479 10.368-4.225l.648-.634-3.24-3.17-.648.635Zm62.209-2.958c0 1.867-1.547 3.38-3.456 3.38s-3.456-1.513-3.456-3.38 1.547-3.38 3.456-3.38c1.908 0 3.456 1.513 3.456 3.38Z" fill="currentColor"/></defs></svg>