<svg width="46" height="73" fill="none" xmlns="http://www.w3.org/2000/svg"><path d="M43.57 31.995V7.215a7 7 0 0 0-14 0v10.87a10.9 10.9 0 0 1-12.19 2.25 7 7 0 0 1-9.59 2.56 7 7 0 0 0-7 7v19.38a22.29 22.29 0 1 0 44.57 0v-11.06a11.56 11.56 0 0 0-1.79-6.22Zm-7-27.38a2.6 2.6 0 0 1 2.59 2.6v20.7a11.925 11.925 0 0 0-2.11-.89l-3.08-.93V7.215a2.61 2.61 0 0 1 2.61-2.6h-.01Zm-9.6 17.37a2.6 2.6 0 0 1 2.6 2.6v.17l-4.84-1.46a2.59 2.59 0 0 1 2.25-1.31h-.01Zm-11.08 3.23a10.22 10.22 0 0 0 4.09 10.74v.48a2.6 2.6 0 0 1-5.19 0v-9.1a2.58 2.58 0 0 1 1.11-2.12h-.01Zm-8.1 2.08a2.59 2.59 0 0 1 2.59 2.59v6.55a2.6 2.6 0 0 1-5.2 0v-6.54a2.6 2.6 0 0 1 2.62-2.6h-.01Zm33.17 22a17.889 17.889 0 1 1-35.77 0v-6.34a11.34 11.34 0 0 1 12.19.5 7 7 0 0 0 6.87-5.65l8.19 2.48a2.2 2.2 0 0 0 1.27-4.21l-9.57-2.9a5.82 5.82 0 0 1-4-6.64l.56.17.85.25 14.24 4.31a7.14 7.14 0 0 1 3.8 2.71l.06.08a7.23 7.23 0 0 1 1.31 4.17v11.07Z" fill="#3A3A4E"/></svg>