<svg width="46" height="45" fill="none" xmlns="http://www.w3.org/2000/svg"><path d="M19.675 43.296c-3.82-.009-7.48-1.498-10.18-4.142-2.7-2.643-4.219-6.226-4.224-9.963V15.176a6.839 6.839 0 0 1 1.41-4.167 7.095 7.095 0 0 1 3.685-2.504 7.24 7.24 0 0 1 4.484.16 7.063 7.063 0 0 1 3.488 2.76 6.2 6.2 0 0 1 .723-.313V8.524a6.803 6.803 0 0 1 .486-2.71 6.923 6.923 0 0 1 1.524-2.312 7.1 7.1 0 0 1 2.323-1.55 7.228 7.228 0 0 1 5.513 0 7.1 7.1 0 0 1 2.323 1.55 6.922 6.922 0 0 1 1.524 2.312c.345.863.51 1.784.486 2.71v5.316a8.93 8.93 0 0 1 .79-.033 8.772 8.772 0 0 1 4.313 1.134 5.45 5.45 0 0 1 2.58 3.296 5.33 5.33 0 0 1-.553 4.115l-8.218 13.903a14.306 14.306 0 0 1-5.272 5.14 14.705 14.705 0 0 1-7.186 1.892l-.02.009Z" fill="#fff"/><path d="M37.308 19.202A1.733 1.733 0 0 0 37 18.58a1.777 1.777 0 0 0-.53-.456 4.993 4.993 0 0 0-3.727-.493 4.932 4.932 0 0 0-1.72.829c-.512.385-.94.865-1.262 1.412l-.287.47v-11.8c0-.87-.354-1.704-.983-2.32a3.392 3.392 0 0 0-2.371-.96c-.89 0-1.743.345-2.372.96a3.246 3.246 0 0 0-.983 2.32v6.034a3.423 3.423 0 0 0-2.47-.006 3.325 3.325 0 0 0-1.804 1.65 3.53 3.53 0 0 0-2.813-.144v-.9c0-.87-.353-1.705-.982-2.32a3.392 3.392 0 0 0-2.372-.962c-.89 0-1.742.346-2.371.961a3.246 3.246 0 0 0-.983 2.32v14.016c-.001 2.3.773 4.534 2.203 6.36a10.692 10.692 0 0 0 5.705 3.732c2.27.596 4.677.443 6.849-.436a10.607 10.607 0 0 0 5.162-4.425l8.208-13.88a1.72 1.72 0 0 0 .211-1.34Zm-17.006-1.58a1.195 1.195 0 0 1 .336-.91 1.247 1.247 0 0 1 .908-.384 1.27 1.27 0 0 1 .908.384 1.214 1.214 0 0 1 .335.91v5.086c-.02.31-.159.6-.39.813a1.26 1.26 0 0 1-.853.33c-.317 0-.622-.118-.853-.33a1.208 1.208 0 0 1-.39-.813v-5.085Zm-3.354.282a1.27 1.27 0 0 1 .881.357 1.217 1.217 0 0 1 .365.861v5.091c0 .323-.131.633-.365.862a1.26 1.26 0 0 1-.88.357 1.26 1.26 0 0 1-.882-.357 1.206 1.206 0 0 1-.364-.862v-5.09c0-.324.13-.634.364-.862a1.26 1.26 0 0 1 .881-.357Zm10.144 15.469a8.512 8.512 0 0 1-4.147 3.552 8.745 8.745 0 0 1-5.502.345 8.58 8.58 0 0 1-4.577-3.005 8.263 8.263 0 0 1-1.759-5.111V15.138a1.196 1.196 0 0 1 .336-.91 1.247 1.247 0 0 1 .908-.384 1.27 1.27 0 0 1 .908.384 1.216 1.216 0 0 1 .335.91v9.038c.001.744.26 1.466.736 2.046.476.581 1.14.987 1.881 1.15a3.421 3.421 0 0 0 2.204-.25 3.318 3.318 0 0 0 1.562-1.54 3.415 3.415 0 0 0 3.3-.071c.497-.29.91-.7 1.197-1.19.287-.491.44-1.047.443-1.613V8.543a1.194 1.194 0 0 1 .335-.91 1.246 1.246 0 0 1 .908-.385 1.27 1.27 0 0 1 .908.385 1.216 1.216 0 0 1 .336.91v15.651c-.001.228.075.45.216.63.142.181.34.311.565.37.225.06.464.044.679-.044.214-.088.394-.242.51-.44l2.246-3.806a2.773 2.773 0 0 1 1.552-1.229 2.841 2.841 0 0 1 1.994.104l-8.074 13.594Z" fill="#3A3A4E"/></svg>