<svg width="184" height="60" fill="none" xmlns="http://www.w3.org/2000/svg"><rect x=".5" width="183" height="60" rx="5" fill="#0A66C2"/><path d="M52.497 48h-7.454V36.307c0-2.789-.05-6.378-3.877-6.378-3.882 0-4.476 3.038-4.476 6.175v11.895h-7.453V23.953h7.155v3.286h.1a7.848 7.848 0 0 1 7.06-3.884c7.555 0 8.948 4.978 8.948 11.454L52.497 48Zm-31.67-27.334c-2.374 0-4.327-1.956-4.327-4.333 0-2.377 1.953-4.333 4.326-4.333 2.372 0 4.325 1.956 4.325 4.332 0 2.377-1.952 4.334-4.325 4.334ZM24.552 48h-7.461V23.953h7.461V48ZM77.348 13.328v-1.296H69.94V24h1.472v-5.456h4.944v-1.296h-4.944v-3.92h5.936Zm4.88 2.368c-2.368 0-4.192 1.632-4.192 4.224 0 2.592 1.823 4.24 4.192 4.24 2.368 0 4.192-1.648 4.192-4.24 0-2.592-1.825-4.224-4.192-4.224Zm0 1.2c1.584 0 2.8 1.12 2.8 3.024s-1.217 3.04-2.8 3.04c-1.584 0-2.8-1.136-2.8-3.04 0-1.904 1.216-3.024 2.8-3.024ZM90.049 24V11.568h-1.376V24h1.376Zm4.172 0V11.568h-1.376V24h1.376Zm6.444-8.304c-2.368 0-4.192 1.632-4.192 4.224 0 2.592 1.824 4.24 4.192 4.24 2.368 0 4.192-1.648 4.192-4.24 0-2.592-1.824-4.224-4.192-4.224Zm0 1.2c1.584 0 2.8 1.12 2.8 3.024s-1.216 3.04-2.8 3.04c-1.584 0-2.8-1.136-2.8-3.04 0-1.904 1.216-3.024 2.8-3.024ZM115.34 24l3.104-8.16h-1.488l-2.208 5.92-2.224-5.92h-.976l-2.208 5.92-2.192-5.92h-1.504l3.104 8.16h1.104l2.192-5.84 2.192 5.84h1.104Zm15.146 0v-8.16h-1.376v4.768c0 1.2-.768 2.256-2.064 2.256-1.232 0-1.92-.848-1.92-2.176V15.84h-1.376v5.04c0 1.952 1.152 3.28 2.976 3.28 1.36 0 2.144-.72 2.448-1.376V24h1.312Zm5.293-8.288c-1.92-.016-2.992.96-2.992 2.384 0 1.6 1.184 1.904 2.768 2.272 1.472.352 2.016.544 2.016 1.376 0 .816-.704 1.216-1.68 1.216-1.088 0-1.76-.48-1.888-1.376l-1.376.096c.208 1.568 1.392 2.48 3.232 2.48 1.888 0 3.088-.912 3.088-2.528 0-1.456-1.104-1.936-2.832-2.352-1.168-.272-1.936-.336-1.936-1.2 0-.72.512-1.2 1.552-1.184 1.04-.016 1.568.528 1.664 1.344l1.376-.08c-.176-1.408-1.168-2.464-2.992-2.448Zm12.933-.016c-2.368 0-4.192 1.632-4.192 4.224 0 2.592 1.824 4.24 4.192 4.24 2.368 0 4.192-1.648 4.192-4.24 0-2.592-1.824-4.224-4.192-4.224Zm0 1.2c1.584 0 2.8 1.12 2.8 3.024s-1.216 3.04-2.8 3.04c-1.584 0-2.8-1.136-2.8-3.04 0-1.904 1.216-3.024 2.8-3.024Zm10.302-1.2c-1.296 0-2.144.624-2.544 1.36V15.84h-1.312V24h1.376v-4.768c0-1.232.896-2.256 2.192-2.256 1.232 0 2.064.88 2.064 2.24V24h1.392v-4.96c0-2.048-1.328-3.344-3.168-3.344Zm-86.146 29.36V29.048H70.66V47h11.208v-1.944h-9Zm12.956-16.08c-.744 0-1.368.6-1.368 1.368 0 .744.6 1.344 1.368 1.344.744 0 1.368-.6 1.368-1.344 0-.768-.624-1.368-1.368-1.368ZM86.832 47V34.76h-2.064V47h2.064Zm9.978-12.456c-1.945 0-3.216.936-3.817 2.04V34.76h-1.968V47h2.064v-7.152c0-1.848 1.344-3.384 3.288-3.384 1.849 0 3.097 1.32 3.097 3.36V47h2.088v-7.44c0-3.072-1.992-5.016-4.752-5.016Zm10.905 5.592V28.352h-2.064V47h2.064v-4.104l1.32-1.296 4.56 5.4h2.639l-5.735-6.912 5.16-5.328h-2.568l-5.376 5.376Zm21.041 1.536v-1.128c0-3.624-2.112-6-5.616-6-3.48 0-6.024 2.352-6.024 6.336 0 3.984 2.568 6.36 6.072 6.36 2.832 0 4.944-1.656 5.448-3.864l-2.064-.12c-.408 1.368-1.632 2.184-3.432 2.184-2.16 0-3.72-1.416-3.84-3.768h9.456Zm-5.64-5.328c2.328 0 3.528 1.512 3.576 3.648H119.3c.144-2.376 1.704-3.648 3.816-3.648ZM143.487 47V28.352h-2.064v8.256c-.672-1.176-2.184-2.064-4.224-2.064-3.36 0-5.904 2.4-5.904 6.36 0 3.936 2.544 6.336 5.904 6.336 2.088 0 3.648-.96 4.344-2.232V47h1.944Zm-6-10.656c2.256 0 3.936 1.416 3.936 4.176v.72c0 2.784-1.68 4.2-3.936 4.2-2.328 0-4.104-1.608-4.104-4.56 0-2.928 1.776-4.536 4.104-4.536ZM149.977 47V29.048h-2.208V47h2.208Zm10.02-12.456c-1.944 0-3.216.936-3.816 2.04V34.76h-1.968V47h2.064v-7.152c0-1.848 1.344-3.384 3.288-3.384 1.848 0 3.096 1.32 3.096 3.36V47h2.088v-7.44c0-3.072-1.992-5.016-4.752-5.016Z" fill="#fff"/></svg>