<svg width="188" height="34" fill="none" xmlns="http://www.w3.org/2000/svg"><path d="M61.653 27.485V17.158l-5.177 10.12h-2.565l-5.204-10.12v10.327h-3.9V8.368h3.442l6.936 13.136 6.89-13.136h3.418v19.117h-3.84ZM79.696 19.33v8.162h-3.545V26.41a4.487 4.487 0 0 1-1.518 1.03 4.427 4.427 0 0 1-1.796.33c-2.615 0-4.324-1.36-4.324-3.91 0-2.938 2.438-3.883 5.203-4.012l2.312-.126v-.51c0-1.33-.552-2.04-1.673-2.04-1.254 0-1.809.87-1.809 1.737l-3.679-.153c0-2.326 2.087-4.726 5.428-4.726 3.492-.014 5.401 1.826 5.401 5.3Zm-5.628 2.966c-1.107.05-1.886.435-1.886 1.38 0 .868.628 1.2 1.508 1.2 1.338 0 2.34-.74 2.34-2.145v-.564l-1.962.129ZM95.254 19.409v8.076h-3.679v-7.362c0-1.7-.88-2.632-2.284-2.632-1.458 0-2.414 1.075-2.414 2.66v7.334h-3.68V14.278h3.469v1.36c.578-.918 1.736-1.608 3.495-1.608 3.006-.014 5.093 1.948 5.093 5.379ZM98.669 34l3.327-7.692-5.086-12.03h4.046l2.994 7.872 2.963-7.872h4.073L102.665 34h-3.996ZM124.531 27.485v-8.052h-7.615v8.052h-3.883V8.368h3.896v7.566h7.615V8.368h3.873v19.117h-3.886ZM142.577 19.33v8.162h-3.545V26.41a4.488 4.488 0 0 1-1.52 1.03 4.436 4.436 0 0 1-1.798.33c-2.615 0-4.324-1.36-4.324-3.91 0-2.938 2.438-3.883 5.204-4.012l2.314-.126v-.51c0-1.33-.555-2.04-1.672-2.04-1.257 0-1.809.87-1.809 1.737l-3.679-.153c0-2.326 2.084-4.726 5.428-4.726 3.488-.014 5.401 1.826 5.401 5.3Zm-5.632 2.966c-1.104.05-1.883.435-1.883 1.38 0 .868.629 1.2 1.509 1.2 1.337 0 2.341-.74 2.341-2.145v-.564l-1.967.129ZM158.132 19.409v8.076h-3.679v-7.362c0-1.7-.88-2.632-2.288-2.632-1.458 0-2.411 1.075-2.411 2.66v7.334h-3.679V14.278h3.468v1.36c.576-.918 1.733-1.608 3.492-1.608 3.013-.014 5.097 1.948 5.097 5.379ZM171.051 27.485v-1.36c-.669.894-2.037 1.635-3.873 1.635-3.679 0-6.257-2.72-6.257-6.872 0-4.152 2.588-6.875 6.257-6.875 1.672 0 3.01.612 3.679 1.404v-7.79h3.642v19.858h-3.448Zm-6.411-6.593c0 2.35 1.307 3.652 3.144 3.652 1.836 0 3.066-1.225 3.066-3.374v-.585c0-2.121-1.257-3.376-3.066-3.376-1.81 0-3.144 1.33-3.144 3.683ZM187.839 18.284l-3.645.204c-.05-.946-.529-1.609-1.672-1.609-.98 0-1.485.408-1.485 1.122 0 .922.983 1.051 2.538 1.46 2.592.68 4.425 1.505 4.425 3.91 0 2.682-1.937 4.393-5.328 4.393-3.317 0-5.254-1.534-5.531-4.291l3.678-.204c.051.969.629 1.635 1.883 1.635 1.004 0 1.636-.435 1.636-1.204 0-.768-.479-1.047-2.361-1.506-2.766-.717-4.602-1.302-4.602-4.012 0-2.53 1.936-4.166 5.204-4.166 3.267 0 5.033 1.816 5.26 4.268ZM28.875 15.366a3.403 3.403 0 0 0-1.067-.748l.64-.653c.393-.401.684-.895.847-1.436a3.53 3.53 0 0 0-.604-3.194c-.349-.442-.799-.79-1.31-1.015l.22-.224a3.518 3.518 0 0 0 .426-4.319 3.423 3.423 0 0 0-1.79-1.406 3.362 3.362 0 0 0-2.261.04 3.478 3.478 0 0 0-.927-1.482 3.398 3.398 0 0 0-1.521-.832A3.36 3.36 0 0 0 19.8.13a3.403 3.403 0 0 0-1.49.888l-8.004 8.13.15-.568a5.144 5.144 0 0 0-.502-3.844 4.998 4.998 0 0 0-3.029-2.358 1.816 1.816 0 0 0-1.395.19 1.87 1.87 0 0 0-.855 1.136L.365 20.099c-.614 2.35-.45 4.84.468 7.085a11.002 11.002 0 0 0 4.61 5.334 10.726 10.726 0 0 0 6.85 1.384 10.808 10.808 0 0 0 6.265-3.136l10.317-10.49c.64-.651 1-1.534 1-2.455 0-.92-.36-1.803-1-2.455Zm-1.518 3.366L17.05 29.24a8.672 8.672 0 0 1-5.037 2.538 8.605 8.605 0 0 1-5.515-1.112 8.828 8.828 0 0 1-3.703-4.3 9.01 9.01 0 0 1-.354-5.706L6.662 4.58c.653.256 1.19.748 1.507 1.382.317.634.393 1.365.212 2.052l-1.18 4.5c-.062.232-.046.478.045.7.091.222.252.408.457.528A1.06 1.06 0 0 0 9 13.564l10.826-11.01a1.286 1.286 0 0 1 1.792 0 1.29 1.29 0 0 1 .371.91 1.308 1.308 0 0 1-.37.912l-8.141 8.276a1.101 1.101 0 0 0 0 1.544 1.065 1.065 0 0 0 1.518 0l8.14-8.276 1.158-1.163a1.272 1.272 0 0 1 .918-.479 1.248 1.248 0 0 1 .963.374 1.292 1.292 0 0 1 .372.979 1.307 1.307 0 0 1-.468.935l-2.461 2.503-7.692 7.82a1.098 1.098 0 0 0-.213 1.193c.085.198.225.366.403.483.179.117.387.178.6.174a1.043 1.043 0 0 0 .758-.32l7.692-7.803a1.267 1.267 0 0 1 .897-.378 1.249 1.249 0 0 1 .896.378 1.291 1.291 0 0 1 .371.911 1.307 1.307 0 0 1-.371.911l-2.913 2.928-5.93 6.032a1.102 1.102 0 0 0 .036 1.508 1.063 1.063 0 0 0 1.483.032l5.93-6.028c.237-.242.56-.378.896-.378.336 0 .658.136.896.378a1.3 1.3 0 0 1 .371.911 1.3 1.3 0 0 1-.371.911Z" fill="#3A3A4E"/><path d="M8.615 15.672a1.105 1.105 0 0 0 0 1.544 5.072 5.072 0 0 1 1.448 3.555c0 1.333-.52 2.612-1.448 3.555a1.101 1.101 0 0 0 0 1.544 1.065 1.065 0 0 0 1.519 0 7.28 7.28 0 0 0 2.075-5.1 7.28 7.28 0 0 0-2.075-5.101 1.068 1.068 0 0 0-1.519.003Z" fill="#3A3A4E"/></svg>