<svg width="49" height="78" fill="none" xmlns="http://www.w3.org/2000/svg"><path d="M43.456 1.03a7 7 0 0 0-8.55 5l-4.08 15.46-4.08-15.46a7 7 0 1 0-13.53 3.57l3.9 14.8a7 7 0 0 0-6.89 3.43 6.82 6.82 0 0 0-.83 2.18 7.08 7.08 0 0 0-3.39 0 7.001 7.001 0 0 0-5 8.55l1.53 5.8v11.49a22.29 22.29 0 0 0 44.57 0V44.82a11.67 11.67 0 0 0-5.39-9.84l6.7-25.4a7 7 0 0 0-4.96-8.55Zm-24.14 4.26a2.58 2.58 0 0 1 3.17 1.84l6.19 23.5-5.84-1.77-5.37-20.35a2.6 2.6 0 0 1 1.85-3.22Zm-5.29 24.73a2.61 2.61 0 0 1 3.55-.94c.37.22.68.53.9.9a3.47 3.47 0 0 0-.67 1.26 10.14 10.14 0 0 0 .77 7.78 10.25 10.25 0 0 0 2.94 3.39 2.61 2.61 0 0 1-2.85 1.897 2.582 2.582 0 0 1-2.16-1.907.981.981 0 0 0 0-.1 1.172 1.172 0 0 0 0-.2l-1.87-7.08-.8-3a2.568 2.568 0 0 1 .19-2Zm-8.48 5.48a2.6 2.6 0 0 1 1.58-1.21c.216-.056.438-.082.66-.08a2.61 2.61 0 0 1 2.52 1.93l1.86 7.08a2.6 2.6 0 0 1-3.81 2.91 2.6 2.6 0 0 1-1.21-1.58 1.919 1.919 0 0 0-.19-.49 3.09 3.09 0 0 0-.07-.52l-1.61-6.07a2.6 2.6 0 0 1 .27-1.97Zm37.18 9.32v11.06a17.89 17.89 0 0 1-35.77 0v-5.54a7 7 0 0 0 8.51-2.57 6.93 6.93 0 0 0 3.51.95 7 7 0 0 0 6.54-4.48l8.66 2.61a2 2 0 0 0 .63.1 2.2 2.2 0 0 0 .64-4.31l-9.58-2.89a5.82 5.82 0 0 1-4-6.64l15.68 4.73a7.28 7.28 0 0 1 5.18 6.98Zm1.46-36.36-6.56 24.82-5.29-1.6a2.19 2.19 0 0 0 .62-1l6.2-23.53a2.6 2.6 0 1 1 5 1.33l.03-.02Z" fill="#3A3A4E"/></svg>