<svg width="45" height="57" fill="none" xmlns="http://www.w3.org/2000/svg"><path d="M5.57 35.155c.807 0 1.603-.189 2.324-.552a5.156 5.156 0 0 0 4.74 3.125c.838.005 1.665-.2 2.405-.594a5.156 5.156 0 0 0 6.573 2.584l.006 10.953a5.156 5.156 0 1 0 10.302 0V30.639l.437.76a7.535 7.535 0 0 0 10.281 2.74 2.784 2.784 0 0 0 1.016-3.797L31.065 8.556A16.448 16.448 0 0 0 8.716 2.52l-.067.067A16.44 16.44 0 0 0 .456 16.79v13.25a5.156 5.156 0 0 0 5.156 5.157l-.041-.042Zm-1.91-5.151-.006-13.255a13.258 13.258 0 0 1 6.505-11.36l.057-.057a13.185 13.185 0 0 1 17.995 4.807l12.38 21.391a4.295 4.295 0 0 1-5.447-1.77l-3.459-5.98a1.62 1.62 0 0 0-3.02.813v26.041a1.915 1.915 0 1 1-3.824 0l.016-15.703v-2.083a1.62 1.62 0 0 0-3.24 0v2.083a1.915 1.915 0 0 1-3.828.005v-4.448a1.62 1.62 0 0 0-3.24 0v2.084a1.915 1.915 0 0 1-3.822 0V27.926a1.622 1.622 0 1 0-3.245.005v2.083a1.915 1.915 0 0 1-3.681.726 1.893 1.893 0 0 1-.142-.736Z" fill="#3A3A4E"/></svg>