<svg width="119" height="76" fill="none" xmlns="http://www.w3.org/2000/svg"><path d="M111.63 16.291a7 7 0 0 0-2.6.5v-1.85a7.006 7.006 0 0 0-9.59-6.5v-.65a7 7 0 0 0-13.38-2.86 7 7 0 0 0-10.21 6.21v23.2l-.59-1a10.23 10.23 0 0 0-14-3.73 3.82 3.82 0 0 0-1.59 1.84 3.73 3.73 0 0 0-1.58-1.84 10.23 10.23 0 0 0-14 3.73l-.6 1v-23.2a7 7 0 0 0-10.21-6.22 7 7 0 0 0-13.38 2.86v.65a7 7 0 0 0-9.6 6.5v1.85a7 7 0 0 0-9.59 6.5v29.91a22.34 22.34 0 0 0 11.12 19.28 22.32 22.32 0 0 0 30.45-8.14l17.13-29.61c.084-.146.154-.3.21-.46.06.158.13.312.21.46l17.13 29.61a22.32 22.32 0 0 0 30.45 8.14 22.339 22.339 0 0 0 11.12-19.28v-29.9a7.002 7.002 0 0 0-6.9-7Zm-73.07 45.86a17.88 17.88 0 0 1-33.36-8.95v-29.91a2.6 2.6 0 1 1 5.19 0v17.19a2.2 2.2 0 1 0 4.4 0v-25.54a2.6 2.6 0 1 1 5.2 0v22.24a2.2 2.2 0 0 0 4.4 0V7.791a2.6 2.6 0 0 1 5.19 0v27a2.2 2.2 0 1 0 4.4 0v-23.6a2.6 2.6 0 0 1 5.19 0v31.39a2.2 2.2 0 0 0 4.11 1.1l4.69-8.12a5.84 5.84 0 0 1 7.4-2.4l-16.81 28.99Zm75.66-8.95a17.878 17.878 0 0 1-13.247 17.272A17.88 17.88 0 0 1 80.86 62.15l-16.8-29a5.82 5.82 0 0 1 7.39 2.4l4.7 8.12a2.2 2.2 0 0 0 4.1-1.1v-31.43a2.6 2.6 0 0 1 5.19 0v23.6a2.2 2.2 0 0 0 4.4 0v-27a2.6 2.6 0 1 1 5.2 0v29.39a2.2 2.2 0 1 0 4.4 0v-22.19A2.602 2.602 0 0 1 103.93 13a2.61 2.61 0 0 1 .7 1.942v25.54a2.202 2.202 0 0 0 2.2 2.2 2.203 2.203 0 0 0 2.2-2.2v-17.19a2.608 2.608 0 0 1 .7-1.942 2.599 2.599 0 0 1 3.79 0 2.61 2.61 0 0 1 .7 1.942v29.91Z" fill="#3A3A4E"/></svg>