<svg width="144" height="96" fill="none" xmlns="http://www.w3.org/2000/svg"><path d="M35.06 93.281A30.08 30.08 0 0 1 5 63.191v-29.9a14.84 14.84 0 0 1 10.82-14.28 14.87 14.87 0 0 1 10.33-8.5 14.78 14.78 0 0 1 22.24-4.16h.23a14.81 14.81 0 0 1 14.79 14.79v9.34a18.08 18.08 0 0 1 10.65 2.35 11.59 11.59 0 0 1 4.23 15.81l-17.14 29.62a30.18 30.18 0 0 1-26.09 15.02Z" fill="#fff"/><path d="M108.36 93.281a30.181 30.181 0 0 1-26.06-15l-17.15-29.63a11.59 11.59 0 0 1 4.22-15.82 18.09 18.09 0 0 1 9-2.42c.55 0 1.1 0 1.64.07v-9.34a14.81 14.81 0 0 1 14.8-14.79h.22a14.791 14.791 0 0 1 22.25 4.16 14.87 14.87 0 0 1 10.32 8.5 14.832 14.832 0 0 1 10.82 14.26v29.9a30.071 30.071 0 0 1-30.06 30.09v.02Z" fill="#fff"/><path d="M123.63 26.291a7 7 0 0 0-2.6.5v-1.85a7.006 7.006 0 0 0-6.243-6.956 7.001 7.001 0 0 0-3.347.456v-.65a6.999 6.999 0 0 0-10.158-6.227 7 7 0 0 0-3.222 3.367 7 7 0 0 0-10.21 6.21v23.2l-.59-1a10.23 10.23 0 0 0-14-3.73 3.82 3.82 0 0 0-1.59 1.84 3.73 3.73 0 0 0-1.58-1.84 10.23 10.23 0 0 0-14 3.73l-.6 1v-23.2a7 7 0 0 0-10.21-6.22 7 7 0 0 0-13.38 2.86v.65a7.001 7.001 0 0 0-9.6 6.5v1.85a7 7 0 0 0-9.59 6.5v29.91a22.34 22.34 0 0 0 11.12 19.28 22.32 22.32 0 0 0 30.45-8.14l17.13-29.61c.084-.146.154-.3.21-.46.06.158.13.312.21.46l17.13 29.61a22.319 22.319 0 0 0 30.45 8.14 22.339 22.339 0 0 0 11.12-19.28v-29.9a7.002 7.002 0 0 0-6.9-7Zm-73.07 45.86a17.88 17.88 0 0 1-33.36-8.95v-29.91a2.597 2.597 0 0 1 2.595-2.761 2.599 2.599 0 0 1 2.595 2.761v17.19a2.2 2.2 0 1 0 4.4 0v-25.54a2.6 2.6 0 1 1 5.2 0v22.24a2.2 2.2 0 0 0 4.4 0v-29.39a2.6 2.6 0 0 1 5.19 0v27a2.2 2.2 0 1 0 4.4 0v-23.6a2.6 2.6 0 0 1 5.19 0v31.39a2.2 2.2 0 0 0 4.11 1.1l4.69-8.12a5.84 5.84 0 0 1 7.4-2.4l-16.81 28.99Zm75.66-8.95a17.878 17.878 0 0 1-13.247 17.272A17.882 17.882 0 0 1 92.86 72.15l-16.8-29a5.82 5.82 0 0 1 7.39 2.4l4.7 8.12a2.2 2.2 0 0 0 4.1-1.1v-31.43a2.6 2.6 0 0 1 5.19 0v23.6a2.2 2.2 0 0 0 4.4 0v-27a2.599 2.599 0 0 1 5.2 0v29.39a2.202 2.202 0 0 0 2.2 2.2 2.202 2.202 0 0 0 2.2-2.2v-22.19a2.608 2.608 0 0 1 .7-1.942 2.609 2.609 0 0 1 1.895-.82 2.6 2.6 0 0 1 2.595 2.762v25.54a2.202 2.202 0 0 0 2.2 2.2 2.203 2.203 0 0 0 2.2-2.2v-17.19a2.608 2.608 0 0 1 .7-1.942 2.599 2.599 0 0 1 3.79 0 2.61 2.61 0 0 1 .7 1.942v29.91Z" fill="#3A3A4E"/><path d="M46.52 53.891a14.55 14.55 0 0 0-14.53 14.54 2.2 2.2 0 0 0 4.4 0 10.14 10.14 0 0 1 10.13-10.14 2.201 2.201 0 0 0 0-4.4ZM96.9 53.891a2.2 2.2 0 0 0 0 4.4 10.15 10.15 0 0 1 10.14 10.14 2.199 2.199 0 0 0 4.4 0 14.548 14.548 0 0 0-14.54-14.54Z" fill="#3A3A4E"/></svg>