<svg width="30" height="34" fill="none" xmlns="http://www.w3.org/2000/svg"><path d="M28.875 15.366a3.403 3.403 0 0 0-1.067-.748l.64-.653c.393-.401.684-.895.847-1.436a3.53 3.53 0 0 0-.604-3.194c-.349-.442-.799-.79-1.31-1.015l.22-.224a3.518 3.518 0 0 0 .426-4.319 3.423 3.423 0 0 0-1.79-1.406 3.362 3.362 0 0 0-2.261.04 3.478 3.478 0 0 0-.927-1.482 3.398 3.398 0 0 0-1.521-.832A3.36 3.36 0 0 0 19.8.13a3.403 3.403 0 0 0-1.49.888l-8.004 8.13.15-.568a5.144 5.144 0 0 0-.502-3.844 4.998 4.998 0 0 0-3.029-2.358 1.816 1.816 0 0 0-1.395.19 1.87 1.87 0 0 0-.855 1.136L.365 20.099c-.614 2.35-.45 4.84.468 7.085a11.002 11.002 0 0 0 4.61 5.334 10.726 10.726 0 0 0 6.85 1.384 10.808 10.808 0 0 0 6.265-3.136l10.317-10.49c.64-.651 1-1.534 1-2.455 0-.92-.36-1.803-1-2.455Zm-1.518 3.366L17.05 29.24a8.672 8.672 0 0 1-5.037 2.538 8.605 8.605 0 0 1-5.515-1.112 8.828 8.828 0 0 1-3.703-4.3 9.01 9.01 0 0 1-.354-5.706L6.662 4.58c.653.256 1.19.748 1.507 1.382.317.634.393 1.365.212 2.052l-1.18 4.5c-.062.232-.046.478.045.7.091.222.252.408.457.528A1.06 1.06 0 0 0 9 13.564l10.826-11.01a1.286 1.286 0 0 1 1.792 0 1.29 1.29 0 0 1 .371.91 1.308 1.308 0 0 1-.37.912l-8.141 8.276a1.101 1.101 0 0 0 0 1.544 1.065 1.065 0 0 0 1.518 0l8.14-8.276 1.158-1.163a1.272 1.272 0 0 1 .918-.479 1.248 1.248 0 0 1 .963.374 1.292 1.292 0 0 1 .372.979 1.307 1.307 0 0 1-.468.935l-2.461 2.503-7.692 7.82a1.098 1.098 0 0 0-.213 1.193c.085.198.225.366.403.483.179.117.387.178.6.174a1.043 1.043 0 0 0 .758-.32l7.692-7.803a1.267 1.267 0 0 1 .897-.378 1.249 1.249 0 0 1 .896.378 1.291 1.291 0 0 1 .371.911 1.307 1.307 0 0 1-.371.911l-2.913 2.928-5.93 6.032a1.102 1.102 0 0 0 .036 1.508 1.063 1.063 0 0 0 1.483.032l5.93-6.028c.237-.242.56-.378.896-.378.336 0 .658.136.896.378a1.3 1.3 0 0 1 .371.911 1.3 1.3 0 0 1-.371.911Z" fill="#3A3A4E"/></svg>