<svg width="204" height="36" fill="none" xmlns="http://www.w3.org/2000/svg"><path d="m18 25.905 6.225 3.765c1.14.69 2.535-.33 2.235-1.62l-1.65-7.08 5.505-4.77c1.005-.87.465-2.52-.855-2.625l-7.245-.615-2.835-6.69c-.51-1.215-2.25-1.215-2.76 0l-2.835 6.675-7.245.615c-1.32.105-1.86 1.755-.855 2.625l5.505 4.77-1.65 7.08c-.3 1.29 1.095 2.31 2.235 1.62L18 25.905ZM60 25.905l6.225 3.765c1.14.69 2.535-.33 2.235-1.62l-1.65-7.08 5.505-4.77c1.005-.87.465-2.52-.855-2.625l-7.245-.615-2.835-6.69c-.51-1.215-2.25-1.215-2.76 0l-2.835 6.675-7.245.615c-1.32.105-1.86 1.755-.855 2.625l5.505 4.77-1.65 7.08c-.3 1.29 1.095 2.31 2.235 1.62L60 25.905ZM102 25.905l6.225 3.765c1.14.69 2.535-.33 2.235-1.62l-1.65-7.08 5.505-4.77c1.005-.87.465-2.52-.855-2.625l-7.245-.615-2.835-6.69c-.51-1.215-2.25-1.215-2.76 0l-2.835 6.675-7.245.615c-1.32.105-1.86 1.755-.855 2.625l5.505 4.77-1.65 7.08c-.3 1.29 1.095 2.31 2.235 1.62l6.225-3.75ZM144 25.905l6.225 3.765c1.14.69 2.535-.33 2.235-1.62l-1.65-7.08 5.505-4.77c1.005-.87.465-2.52-.855-2.625l-7.245-.615-2.835-6.69c-.51-1.215-2.25-1.215-2.76 0l-2.835 6.675-7.245.615c-1.32.105-1.86 1.755-.855 2.625l5.505 4.77-1.65 7.08c-.3 1.29 1.095 2.31 2.235 1.62l6.225-3.75ZM186 25.905l6.225 3.765c1.14.69 2.535-.33 2.235-1.62l-1.65-7.08 5.505-4.77c1.005-.87.465-2.52-.855-2.625l-7.245-.615-2.835-6.69c-.51-1.215-2.25-1.215-2.76 0l-2.835 6.675-7.245.615c-1.32.105-1.86 1.755-.855 2.625l5.505 4.77-1.65 7.08c-.3 1.29 1.095 2.31 2.235 1.62l6.225-3.75Z" fill="#FC895B"/></svg>