<svg width="42" height="61" fill="none" xmlns="http://www.w3.org/2000/svg"><path fill-rule="evenodd" clip-rule="evenodd" d="M9.497 13.874a6.774 6.774 0 0 1 4.652-8.375 6.774 6.774 0 0 1 8.377 4.648l4.966 17.363a6.774 6.774 0 0 1-4.652 8.375 6.774 6.774 0 0 1-8.377-4.648L9.497 13.874Zm3.41-12.716C6.913 2.873 3.44 9.123 5.156 15.117l4.966 17.363c1.714 5.993 7.964 9.462 13.96 7.746 5.997-1.714 9.468-7.963 7.754-13.957L26.869 8.905C25.154 2.912 18.904-.556 12.908 1.16ZM5.78 33.722a2.258 2.258 0 0 0-4.343 1.242 20.312 20.312 0 0 0 9.675 12.176 20.33 20.33 0 0 0 13.248 2.269l1.275 4.46-6.514 1.863a2.259 2.259 0 0 0 1.242 4.343l17.371-4.968a2.258 2.258 0 1 0-1.242-4.343l-6.514 1.863-1.276-4.46a20.33 20.33 0 0 0 10.047-8.932 20.312 20.312 0 0 0 1.773-15.45 2.258 2.258 0 0 0-4.342 1.243 15.799 15.799 0 0 1-1.38 12.016 15.813 15.813 0 0 1-9.43 7.51l-.027.008a1.409 1.409 0 0 0-.02.005l-.046.014a15.813 15.813 0 0 1-11.973-1.39 15.798 15.798 0 0 1-7.524-9.469Z" fill="#3A3A4E"/><path d="m31.835 26.268-.481.138.48-.138ZM26.869 8.905l.48-.137-.48.137ZM11.112 47.14l-.243.437.243-.437Zm13.248 2.269.48-.138a.5.5 0 0 0-.564-.355l.084.493Zm1.275 4.46.138.481a.5.5 0 0 0 .343-.618l-.48.137Zm-6.514 1.863-.138-.48.138.48Zm10.857-3.105-.48.138a.5.5 0 0 0 .617.343l-.137-.48Zm-1.276-4.46-.19-.462a.5.5 0 0 0-.29.6l.48-.138Zm10.047-8.932-.437-.243.437.243ZM34.8 37.043l.437.243-.437-.243Zm-9.43 7.51.128.484.012-.003-.14-.48Zm-.027.008-.133-.482.133.482Zm-.066.02.136.48.012-.003-.148-.478Zm-11.973-1.39-.242.437.243-.437Zm.708-38.172a7.274 7.274 0 0 0-4.995 8.992l.961-.275a6.274 6.274 0 0 1 4.309-7.756l-.275-.961Zm8.995 4.99a7.274 7.274 0 0 0-8.995-4.99l.275.961a6.274 6.274 0 0 1 7.758 4.305l.962-.275Zm4.966 17.364L23.007 10.01l-.962.275 4.966 17.363.962-.275Zm-4.996 8.992a7.274 7.274 0 0 0 4.996-8.992l-.962.275a6.274 6.274 0 0 1-4.309 7.756l.275.961Zm-8.994-4.99a7.274 7.274 0 0 0 8.994 4.99l-.275-.961a6.274 6.274 0 0 1-7.758-4.305l-.961.275ZM9.017 14.01l4.966 17.363.961-.275-4.966-17.363-.961.275Zm-3.382.967c-1.638-5.727 1.68-11.7 7.41-13.339L12.77.678C6.51 2.468 2.884 8.994 4.674 15.253l.961-.275Zm4.966 17.363L5.635 14.978l-.961.275L9.64 32.616l.961-.275Zm13.343 7.404C18.213 41.384 12.24 38.069 10.6 32.34l-.961.275c1.79 6.26 8.317 9.881 14.579 8.09l-.275-.961Zm7.41-13.34c1.638 5.728-1.68 11.7-7.41 13.34l.275.961c6.261-1.79 9.886-8.316 8.096-14.575l-.961.275ZM26.388 9.044l4.966 17.363.961-.275L27.35 8.768l-.961.275ZM13.045 1.639C18.776 0 24.75 3.315 26.388 9.043l.961-.275c-1.79-6.26-8.317-9.881-14.579-8.09l.275.961Zm-9.92 31.014A1.758 1.758 0 0 1 5.3 33.859l.962-.275a2.758 2.758 0 0 0-3.41-1.893l.274.962Zm-1.207 2.173a1.758 1.758 0 0 1 1.207-2.173l-.275-.962a2.758 2.758 0 0 0-1.893 3.41l.961-.275ZM11.354 46.7a19.812 19.812 0 0 1-9.436-11.875l-.961.275a20.812 20.812 0 0 0 9.912 12.475l.485-.875Zm12.922 2.214A19.83 19.83 0 0 1 11.354 46.7l-.485.875A20.83 20.83 0 0 0 24.443 49.9l-.167-.986Zm1.84 4.816-1.276-4.46-.961.274 1.275 4.46.962-.274Zm-6.858 2.481 6.515-1.863-.275-.961-6.515 1.863.275.961Zm-1.207 2.174a1.758 1.758 0 0 1 1.207-2.174l-.275-.961a2.759 2.759 0 0 0-1.893 3.41l.961-.275Zm2.174 1.208a1.758 1.758 0 0 1-2.174-1.208l-.961.275a2.759 2.759 0 0 0 3.41 1.894l-.275-.961Zm17.371-4.969-17.37 4.969.274.961 17.371-4.968-.275-.962Zm1.208-2.174a1.758 1.758 0 0 1-1.208 2.174l.276.962a2.758 2.758 0 0 0 1.893-3.41l-.961.274Zm-2.175-1.207a1.758 1.758 0 0 1 2.175 1.207l.961-.275a2.758 2.758 0 0 0-3.41-1.894l.274.962Zm-6.513 1.863 6.513-1.863-.275-.962-6.514 1.864.276.961Zm-1.894-4.803 1.275 4.46.962-.275-1.276-4.46-.961.274Zm10.09-9.313a19.83 19.83 0 0 1-9.8 8.712l.38.925a20.83 20.83 0 0 0 10.294-9.151l-.874-.486Zm1.73-15.069a19.812 19.812 0 0 1-1.73 15.07l.874.485a20.812 20.812 0 0 0 1.817-15.83l-.961.275Zm-2.174-1.206a1.758 1.758 0 0 1 2.174 1.206l.961-.275a2.758 2.758 0 0 0-3.41-1.892l.275.961Zm-1.208 2.173a1.758 1.758 0 0 1 1.208-2.173l-.275-.961a2.758 2.758 0 0 0-1.894 3.41l.961-.276Zm-1.423 12.397c2.1-3.78 2.612-8.24 1.423-12.397l-.961.275A15.298 15.298 0 0 1 34.363 36.8l.874.486Zm-9.727 7.748a16.313 16.313 0 0 0 9.727-7.748l-.874-.486a15.313 15.313 0 0 1-9.131 7.273l.278.96Zm-.034.009.022-.006-.254-.967-.034.01.267.963Zm-.015.004.016-.004-.267-.964a1.434 1.434 0 0 0-.024.007l.275.961Zm-.036.011.036-.01-.275-.962a2.63 2.63 0 0 0-.056.017l.295.955Zm-12.363-1.43a16.313 16.313 0 0 0 12.351 1.434l-.272-.963c-3.89 1.1-8.058.617-11.594-1.345l-.485.874Zm-7.763-9.77a16.298 16.298 0 0 0 7.763 9.77l.485-.874a15.298 15.298 0 0 1-7.286-9.17l-.962.275Z" fill="#3A3A4E"/></svg>