<svg width="609" height="89" fill="none" xmlns="http://www.w3.org/2000/svg"><path d="M.218 22.064 7.89 37.592l9.611-14.41L.218 22.064ZM353.675 60.75l-.599-1.375.599 1.375ZM6.879 28.177a286.056 286.056 0 0 0 5.142 3.136l1.535-2.577a283.931 283.931 0 0 1-5.088-3.103l-1.59 2.544Zm10.312 6.15c1.691.964 3.426 1.933 5.204 2.906l1.44-2.632a335.167 335.167 0 0 1-5.158-2.88l-1.486 2.605Zm10.488 5.74c1.749.919 3.535 1.84 5.358 2.761l1.353-2.677a375.358 375.358 0 0 1-5.316-2.74l-1.396 2.655Zm10.68 5.4c1.77.862 3.573 1.723 5.405 2.581l1.272-2.716a403.767 403.767 0 0 1-5.365-2.562l-1.312 2.697Zm10.863 5.09c1.789.808 3.603 1.611 5.443 2.41l1.195-2.751a425.678 425.678 0 0 1-5.404-2.393l-1.234 2.735Zm10.968 4.765c1.818.76 3.659 1.515 5.522 2.264l1.12-2.783a437.075 437.075 0 0 1-5.484-2.249l-1.158 2.768Zm11.087 4.46c1.848.714 3.717 1.423 5.606 2.124l1.044-2.812c-1.876-.697-3.732-1.4-5.568-2.11l-1.082 2.797Zm11.21 4.163c1.875.668 3.767 1.328 5.677 1.98l.97-2.839a447.274 447.274 0 0 1-5.64-1.967l-1.006 2.826Zm11.322 3.866c1.892.618 3.8 1.228 5.724 1.828l.893-2.864a448.937 448.937 0 0 1-5.685-1.816l-.932 2.852Zm11.422 3.565a443.1 443.1 0 0 0 5.763 1.673l.817-2.887a440.242 440.242 0 0 1-5.724-1.662l-.856 2.876Zm11.513 3.259c1.921.516 3.855 1.021 5.801 1.516l.739-2.907a443.816 443.816 0 0 1-5.762-1.507l-.778 2.898Zm11.597 2.947c1.934.464 3.88.917 5.838 1.358l.659-2.927a432.355 432.355 0 0 1-5.798-1.348l-.699 2.917Zm11.672 2.63c1.948.41 3.906.809 5.874 1.195l.577-2.944c-1.954-.384-3.898-.78-5.832-1.187l-.619 2.936Zm11.742 2.303c1.959.356 3.928.7 5.906 1.03l.494-2.96a416.105 416.105 0 0 1-5.864-1.021l-.536 2.951Zm11.803 1.97c1.97.3 3.949.586 5.936.858l.408-2.972a406.73 406.73 0 0 1-5.893-.852l-.451 2.966Zm11.856 1.626c1.979.242 3.967.47 5.962.683l.319-2.983c-1.98-.212-3.952-.438-5.917-.678l-.364 2.978Zm11.9 1.273c1.987.183 3.98.35 5.98.503l.229-2.992a386.817 386.817 0 0 1-5.935-.498l-.274 2.987Zm11.935.91c1.99.122 3.986.227 5.988.318l.135-2.997c-1.986-.09-3.967-.195-5.941-.315l-.182 2.995Zm11.959.539c1.991.058 3.988.1 5.99.126l.039-3a370.229 370.229 0 0 1-5.942-.125l-.087 2.999Zm11.972.154c1.991-.006 3.986-.029 5.986-.069l-.059-2.999c-1.984.04-3.963.062-5.937.069l.01 3Zm11.973-.237c1.988-.073 3.98-.162 5.975-.269l-.16-2.995c-1.978.105-3.954.194-5.925.266l.11 2.998Zm11.961-.64c1.982-.14 3.968-.297 5.957-.472l-.263-2.988c-1.972.173-3.94.329-5.905.468l.211 2.992Zm11.933-1.05c1.975-.209 3.952-.435 5.932-.679l-.367-2.977c-1.963.242-3.923.466-5.88.673l.315 2.983Zm11.878-1.466c1.969-.279 3.94-.576 5.913-.891l-.473-2.963c-1.956.313-3.909.607-5.861.883l.421 2.97Zm11.82-1.89c1.961-.35 3.924-.719 5.888-1.107l-.581-2.943c-1.946.384-3.891.75-5.835 1.096l.528 2.954Zm11.745-2.319c1.952-.422 3.904-.864 5.858-1.325l-.689-2.92c-1.936.457-3.87.895-5.804 1.313l.635 2.932Zm11.656-2.75a319.987 319.987 0 0 0 5.801-1.542l-.797-2.892a316.056 316.056 0 0 1-5.748 1.528l.744 2.906Zm11.549-3.184c1.909-.566 3.819-1.15 5.728-1.755l-.906-2.86a314.806 314.806 0 0 1-5.674 1.738l.852 2.877Zm11.427-3.62c1.881-.635 3.763-1.29 5.644-1.965l-1.013-2.823a312.812 312.812 0 0 1-5.591 1.946l.96 2.843Zm11.286-4.05a314.418 314.418 0 0 0 5.553-2.173l-1.12-2.784a310.755 310.755 0 0 1-5.5 2.153l1.067 2.804Zm11.097-4.465c.923-.392 1.846-.789 2.769-1.191l-1.198-2.75c-.914.398-1.829.791-2.743 1.18l1.172 2.761Zm2.769-1.191 2.777-1.206-1.191-2.753c-.925.4-1.854.803-2.784 1.209l1.198 2.75Zm8.287-3.57c1.831-.78 3.653-1.549 5.465-2.308l-1.16-2.767a1018.38 1018.38 0 0 0-5.48 2.315l1.175 2.76Zm11.031-4.621c1.845-.76 3.68-1.51 5.504-2.249l-1.127-2.78c-1.829.74-3.669 1.492-5.52 2.255l1.143 2.774Zm11.076-4.486a944.178 944.178 0 0 1 5.553-2.19l-1.091-2.795a978.92 978.92 0 0 0-5.572 2.197l1.11 2.788Zm11.125-4.347c1.878-.72 3.745-1.429 5.6-2.126l-1.055-2.808c-1.861.7-3.734 1.41-5.619 2.133l1.074 2.801Zm11.178-4.202a881.206 881.206 0 0 1 5.644-2.056l-1.017-2.823a871.367 871.367 0 0 0-5.663 2.064l1.036 2.815Zm11.237-4.05a838.44 838.44 0 0 1 5.681-1.98l-.977-2.837a844.56 844.56 0 0 0-5.702 1.987l.998 2.83Zm11.297-3.893a798.64 798.64 0 0 1 5.713-1.897l-.934-2.85a788.335 788.335 0 0 0-5.735 1.904l.956 2.843Zm11.36-3.724a737.909 737.909 0 0 1 5.738-1.807l-.89-2.865a748.875 748.875 0 0 0-5.761 1.814l.913 2.858Zm11.421-3.546a715.56 715.56 0 0 1 5.755-1.708l-.842-2.88c-1.909.559-3.835 1.13-5.779 1.716l.866 2.872Zm11.483-3.354a650.88 650.88 0 0 1 5.76-1.6l-.79-2.895c-1.91.521-3.839 1.057-5.786 1.608l.816 2.887Zm11.538-3.15c1.938-.509 3.856-1.003 5.754-1.483l-.735-2.909c-1.907.482-3.835.98-5.782 1.491l.763 2.902Zm11.586-2.926a581.01 581.01 0 0 1 5.788-1.37l-.675-2.922c-1.917.443-3.857.902-5.818 1.376l.705 2.916Zm11.621-2.684c1.976-.434 3.927-.851 5.854-1.251l-.611-2.938c-1.937.403-3.899.823-5.886 1.259l.643 2.93Zm11.677-2.427a485.13 485.13 0 0 1 5.876-1.112l-.539-2.951a487.36 487.36 0 0 0-5.913 1.12l.576 2.943Zm11.771-2.15c1.991-.338 3.951-.657 5.879-.956l-.461-2.965c-1.942.302-3.915.623-5.919.962l.501 2.958Zm11.748-1.826c2.016-.284 3.995-.547 5.937-.79l-.373-2.977c-1.957.245-3.951.51-5.982.796l.418 2.97Zm11.874-1.485c2.022-.219 4.001-.416 5.935-.591l-.271-2.988c-1.952.177-3.948.376-5.988.597l.324 2.982Zm11.873-1.074c2.035-.146 4.016-.267 5.943-.364l-.151-2.996c-1.949.098-3.951.22-6.006.368l.214 2.992Zm11.892-.598a229.71 229.71 0 0 1 5.95-.088l-.005-3c-1.94.003-3.95.032-6.027.09l.082 2.998ZM581.237 4c2.063.058 4.03.148 5.902.266l.189-2.994c-1.908-.12-3.91-.212-6.007-.27L581.237 4Zm11.829.764c2.095.224 4.035.486 5.821.78l.487-2.96a106.937 106.937 0 0 0-5.989-.803l-.319 2.983Zm11.572 1.957c1.002.254 1.924.518 2.767.79l.921-2.856a48.156 48.156 0 0 0-2.953-.842l-.735 2.908Z" fill="#3A3A4E"/></svg>