<svg width="63" height="70" fill="none" xmlns="http://www.w3.org/2000/svg"><path d="m61.312 41.334-8.82-33a3.78 3.78 0 0 0-4.62-2.68 10.23 10.23 0 0 0-7.24 12.51l.31 1.14-16.4-16.4a7 7 0 0 0-11.65 2.77 7 7 0 0 0-7.43 11.49l.45.46a7 7 0 0 0-2.18 11.38l1.31 1.31a6.9 6.9 0 0 0-2.19 1.48 7 7 0 0 0 0 9.9l21.15 21.14a22.28 22.28 0 0 0 37.28-21.5h.03Zm-6 14.7a17.731 17.731 0 0 1-10.86 8.32 17.93 17.93 0 0 1-17.26-4.63l-21.2-21.15a2.601 2.601 0 1 1 3.67-3.67l12.16 12.16a2.2 2.2 0 0 0 3.11-3.11l-12.15-12.16-5.89-5.91a2.6 2.6 0 0 1 0-3.67 2.6 2.6 0 0 1 3.67 0l15.73 15.73a2.21 2.21 0 0 0 1.56.65 2.21 2.21 0 0 0 1.55-3.76l-15.73-15.73-5-5a2.6 2.6 0 0 1 3.67-3.67l2.37 2.37 16.68 16.68a2.188 2.188 0 0 0 1.55.65 2.21 2.21 0 0 0 1.56-3.76l-16.69-16.68a2.61 2.61 0 0 1 0-3.68 2.67 2.67 0 0 1 3.68 0l22.19 22.2a2.2 2.2 0 0 0 3.68-2.12l-2.47-9.12a5.84 5.84 0 0 1 3.53-6.93l8.65 32.42a17.74 17.74 0 0 1-1.81 13.57h.05Z" fill="#3A3A4E"/></svg>