<svg width="108" height="30" viewBox="0 0 108 30" xmlns="http://www.w3.org/2000/svg"><defs>
<path id="a" fill-rule="evenodd" clip-rule="evenodd" d="M28.0801 0H33.0481V30H28.0801V0ZM50.3287 20.493C50.3287 25.1409 46.4407 25.5634 45.1447 25.5634C42.1207 25.5634 41.6887 22.8169 41.6887 21.338V9.71833H36.7207V21.1268C36.7207 23.8732 37.5847 26.4085 39.3127 27.8873C40.8247 29.3662 42.7687 30 45.1447 30C46.8727 30 49.0327 29.5775 50.3287 28.3099V30H55.2967V9.71833H50.3287V20.493ZM60.047 2.32392H65.015V9.71828H68.687V14.3662H65.015V29.9999H60.047V14.3662H56.375V9.71828H60.047V2.32392ZM84.2407 23.8731C83.1607 24.7182 81.6487 25.352 80.1367 25.352C76.6807 25.352 74.3047 22.8168 74.3047 19.4365C74.3047 16.0562 76.6807 13.7323 80.1367 13.7323C81.6487 13.7323 83.1607 14.1548 84.2407 15.2112L84.8887 15.845L88.3447 12.6759L87.4807 12.0421C85.5367 10.352 82.9447 9.29567 80.1367 9.29567C74.0887 9.29567 69.5527 13.7323 69.5527 19.6478C69.5527 25.5633 74.0887 29.9999 80.1367 29.9999C82.9447 29.9999 85.5367 28.9435 87.4807 27.2534L88.3447 26.6196L84.8887 23.2393L84.2407 23.8731ZM100.441 9.29577C102.817 9.29577 104.329 9.92957 105.841 11.4084C107.353 12.8873 108.001 15.4225 108.001 18.169V29.7887H103.033V17.9577C103.033 17.869 103.033 17.7758 103.034 17.6788V17.6787V17.6786C103.047 16.1591 103.067 13.7324 100.225 13.7324C98.9287 13.7324 95.6887 14.1549 95.6887 18.8028V30H90.7207V0H95.6887V10.9859C96.9847 9.7183 98.7127 9.29577 100.441 9.29577ZM21.168 22.6056C19.44 24.2957 16.848 25.352 14.04 25.352C8.64 25.352 4.752 21.1267 4.752 15.4225C4.752 9.71825 8.64 5.49291 14.256 5.49291C16.848 5.49291 19.44 6.54924 21.384 8.45065L22.032 9.08445L25.272 5.91544L24.624 5.28164C21.816 2.53516 18.144 1.05629 14.256 1.05629C6.048 0.845024 0 7.18305 0 15.4225C0 23.6619 6.048 29.9999 14.04 29.9999C17.928 29.9999 21.816 28.521 24.408 25.7746L25.056 25.1408L21.816 21.9718L21.168 22.6056ZM83.3768 19.6477C83.3768 21.5146 81.8295 23.028 79.9208 23.028C78.0121 23.028 76.4648 21.5146 76.4648 19.6477C76.4648 17.7808 78.0121 16.2674 79.9208 16.2674C81.8295 16.2674 83.3768 17.7808 83.3768 19.6477Z" fill="currentColor"/>
</defs></svg>
