<svg width="46" height="73" viewBox="0 0 46 73" fill="none" xmlns="http://www.w3.org/2000/svg">
<path d="M43.5701 31.9948V7.21484C43.5701 5.35833 42.8326 3.57783 41.5199 2.26508C40.2071 0.952321 38.4266 0.214844 36.5701 0.214844C34.7136 0.214844 32.9331 0.952321 31.6204 2.26508C30.3076 3.57783 29.5701 5.35833 29.5701 7.21484V18.0848C28.0073 19.6537 26.0037 20.7094 23.826 21.1113C21.6484 21.5133 19.4 21.2425 17.3801 20.3348C16.9203 21.1344 16.307 21.8353 15.5754 22.3971C14.8439 22.9589 14.0085 23.3706 13.1173 23.6085C12.2261 23.8464 11.2967 23.9058 10.3824 23.7833C9.46822 23.6609 8.5873 23.3589 7.79016 22.8948C5.93364 22.8948 4.15308 23.6323 2.84033 24.9451C1.52757 26.2578 0.790157 28.0383 0.790157 29.8948V49.2748C0.727319 52.2411 1.25718 55.19 2.34887 57.9487C3.44057 60.7075 5.07212 63.2205 7.1477 65.3405C9.22328 67.4605 11.7011 69.1449 14.4362 70.2947C17.1712 71.4446 20.1082 72.0369 23.0751 72.0369C26.042 72.0369 28.979 71.4446 31.714 70.2947C34.449 69.1449 36.927 67.4605 39.0026 65.3405C41.0781 63.2205 42.7096 60.7075 43.8013 57.9487C44.893 55.19 45.4229 52.2411 45.3601 49.2748V38.2148C45.3679 36.0134 44.7468 33.8554 43.5701 31.9948ZM36.5701 4.61481C37.2579 4.61745 37.9167 4.89257 38.4021 5.37988C38.8875 5.86719 39.1602 6.52701 39.1602 7.21484V27.9148C38.487 27.5511 37.7803 27.2531 37.05 27.0248L33.9701 26.0948V24.5848V7.21484C33.9727 6.52436 34.2488 5.86304 34.738 5.37573C35.2272 4.88842 35.8896 4.6148 36.5801 4.61481H36.5701ZM26.9701 21.9848C27.6597 21.9848 28.321 22.2587 28.8086 22.7463C29.2962 23.2339 29.5701 23.8953 29.5701 24.5848V24.7548L24.7301 23.2948C24.9561 22.8972 25.2834 22.5666 25.6786 22.3365C26.0738 22.1065 26.5228 21.9851 26.9801 21.9848H26.9701ZM15.8901 25.2148C15.4165 27.2087 15.5531 29.299 16.2825 31.2142C17.0118 33.1294 18.3001 34.7811 19.9801 35.9548V36.4348C19.9391 37.0952 19.6478 37.7151 19.1656 38.1683C18.6835 38.6214 18.0468 38.8737 17.3851 38.8737C16.7235 38.8737 16.0866 38.6214 15.6045 38.1683C15.1223 37.7151 14.8312 37.0952 14.7902 36.4348V29.8848V27.3348C14.7902 26.9181 14.8912 26.5076 15.0845 26.1384C15.2778 25.7692 15.5577 25.4523 15.9001 25.2148H15.8901ZM7.79016 27.2948C8.47707 27.2948 9.13574 27.5677 9.62146 28.0534C10.1072 28.5391 10.3801 29.1979 10.3801 29.8848V36.4348C10.3801 37.1244 10.1061 37.7857 9.61853 38.2733C9.13093 38.7609 8.46971 39.0348 7.78015 39.0348C7.09058 39.0348 6.42924 38.7609 5.94165 38.2733C5.45405 37.7857 5.18005 37.1244 5.18005 36.4348V29.8948C5.18004 29.5517 5.24797 29.212 5.37988 28.8952C5.51179 28.5784 5.70517 28.291 5.94873 28.0493C6.19228 27.8076 6.48119 27.6164 6.79895 27.4869C7.1167 27.3575 7.45693 27.2922 7.80005 27.2948H7.79016ZM40.9601 49.2948C41.0165 51.6791 40.5955 54.0506 39.722 56.2698C38.8486 58.4891 37.5403 60.5112 35.8739 62.2175C34.2075 63.9237 32.2169 65.2795 30.0189 66.2052C27.8209 67.1309 25.46 67.6077 23.0751 67.6077C20.6901 67.6077 18.3293 67.1309 16.1313 66.2052C13.9334 65.2795 11.9426 63.9237 10.2762 62.2175C8.60989 60.5112 7.30156 58.4891 6.4281 56.2698C5.55463 54.0506 5.13368 51.6791 5.19006 49.2948V42.9548C7.05831 41.8677 9.19834 41.3373 11.358 41.4258C13.5177 41.5144 15.6072 42.2184 17.3801 43.4548C19.0026 43.4552 20.5748 42.8918 21.8279 41.8613C23.081 40.8307 23.9372 39.3968 24.2501 37.8048L32.4401 40.2848C32.6448 40.3441 32.8569 40.3744 33.0701 40.3748C33.5947 40.3711 34.1008 40.18 34.4969 39.836C34.8931 39.492 35.1533 39.0177 35.2306 38.4987C35.3078 37.9798 35.197 37.4503 34.9182 37.0059C34.6394 36.5614 34.2109 36.2312 33.7101 36.0748L24.1401 33.1748C22.7742 32.7525 21.6115 31.8423 20.8738 30.6177C20.136 29.393 19.8749 27.9397 20.1401 26.5348L20.7001 26.7048L21.55 26.9548L35.7902 31.2648C37.3246 31.717 38.6628 32.6713 39.5901 33.9748L39.6501 34.0548C40.5066 35.2764 40.9641 36.7329 40.9601 38.2248V49.2948Z" fill="#3A3A4E"/>
</svg>
