<svg width="46" height="45" viewBox="0 0 46 45" fill="none" xmlns="http://www.w3.org/2000/svg">
<path d="M19.6748 43.2959C15.8549 43.2873 12.1942 41.798 9.49448 39.1543C6.79477 36.5107 5.27607 32.9281 5.27101 29.1913V15.1756C5.26801 13.6741 5.76309 12.2122 6.68187 11.0093C7.60065 9.80654 8.89354 8.92781 10.3664 8.50513C11.8392 8.08245 13.4125 8.13863 14.8499 8.66525C16.2873 9.19187 17.5112 10.1605 18.3379 11.4256C18.5719 11.3058 18.8136 11.2009 19.0614 11.1116V8.52407C19.0368 7.59816 19.202 6.6768 19.5472 5.81434C19.8924 4.95187 20.4107 4.16577 21.0714 3.50237C21.7321 2.83898 22.5219 2.31173 23.3943 1.95173C24.2667 1.59172 25.2039 1.40625 26.1507 1.40625C27.0975 1.40625 28.0347 1.59172 28.9071 1.95173C29.7794 2.31173 30.5693 2.83898 31.23 3.50237C31.8908 4.16577 32.409 4.95187 32.7542 5.81434C33.0994 6.6768 33.2646 7.59816 33.24 8.52407V13.8397C33.5035 13.8163 33.767 13.8069 34.0306 13.8069C35.545 13.8081 37.0323 14.1993 38.3431 14.9413C39.6148 15.6626 40.5422 16.8478 40.9222 18.2369C41.3021 19.6261 41.1035 21.106 40.37 22.3522L32.1523 36.2553C30.8835 38.389 29.066 40.1607 26.8804 41.3942C24.6948 42.6277 22.2172 43.2801 19.6939 43.2866L19.6748 43.2959Z" fill="red"/>
<path d="M37.3081 19.2022C37.2487 18.9769 37.1439 18.7656 36.9999 18.5804C36.8559 18.3953 36.6756 18.2401 36.4696 18.124C35.9125 17.8051 35.2964 17.5974 34.6567 17.5127C34.0171 17.428 33.3667 17.4681 32.743 17.6306C32.1193 17.7932 31.5346 18.075 31.0229 18.4598C30.5111 18.8446 30.0823 19.3247 29.7612 19.8725L29.4738 20.3412V8.54279C29.4738 7.67254 29.1204 6.83795 28.4913 6.2226C27.8623 5.60724 27.0092 5.26154 26.1196 5.26154C25.23 5.26154 24.3769 5.60724 23.7478 6.2226C23.1188 6.83795 22.7654 7.67254 22.7654 8.54279V14.5756C21.9727 14.2665 21.0894 14.2646 20.2953 14.5703C19.5012 14.876 18.8561 15.4662 18.4913 16.2209C18.0589 16.0056 17.5851 15.8815 17.1007 15.8564C16.6162 15.8314 16.1317 15.9061 15.6785 16.0756V15.1756C15.6785 14.3054 15.3252 13.4708 14.6961 12.8554C14.0671 12.2401 13.214 11.8944 12.3244 11.8944C11.4348 11.8944 10.5817 12.2401 9.95263 12.8554C9.32361 13.4708 8.97022 14.3054 8.97022 15.1756V29.1912C8.96903 31.4903 9.74337 33.7255 11.1731 35.5502C12.6029 37.3748 14.6082 38.687 16.878 39.2831C19.1478 39.8792 21.5552 39.726 23.7269 38.8471C25.8986 37.9683 27.7132 36.413 28.8892 34.4225L37.0973 20.5428C37.2222 20.3444 37.3052 20.1236 37.3414 19.8934C37.3776 19.6631 37.3663 19.4281 37.3081 19.2022ZM20.3025 17.6225C20.292 17.4564 20.3163 17.2899 20.374 17.1334C20.4317 16.9769 20.5216 16.8335 20.6381 16.7123C20.7546 16.591 20.8953 16.4944 21.0514 16.4283C21.2075 16.3623 21.3758 16.3282 21.5459 16.3282C21.7161 16.3282 21.8844 16.3623 22.0405 16.4283C22.1966 16.4944 22.3373 16.591 22.4538 16.7123C22.5703 16.8335 22.6602 16.9769 22.7179 17.1334C22.7756 17.2899 22.7999 17.4564 22.7894 17.6225V22.7084C22.7697 23.018 22.6302 23.3086 22.3991 23.521C22.1681 23.7334 21.863 23.8516 21.5459 23.8516C21.2289 23.8516 20.9238 23.7334 20.6927 23.521C20.4617 23.3086 20.3222 23.018 20.3025 22.7084V17.6225ZM16.9483 17.9037C17.1119 17.9037 17.274 17.9353 17.4251 17.9965C17.5763 18.0577 17.7136 18.1475 17.8293 18.2607C17.945 18.3739 18.0367 18.5082 18.0993 18.6561C18.162 18.8039 18.1942 18.9624 18.1942 19.1225V24.2131C18.1942 24.5363 18.0629 24.8463 17.8293 25.0749C17.5956 25.3034 17.2788 25.4319 16.9483 25.4319C16.6179 25.4319 16.301 25.3034 16.0674 25.0749C15.8338 24.8463 15.7025 24.5363 15.7025 24.2131V19.1225C15.7025 18.7992 15.8338 18.4893 16.0674 18.2607C16.301 18.0321 16.6179 17.9037 16.9483 17.9037ZM27.0923 33.3725C26.1476 34.9713 24.6895 36.2202 22.9446 36.925C21.1998 37.6299 19.2658 37.7512 17.4432 37.2702C15.6205 36.7892 14.0114 35.7327 12.8656 34.265C11.7199 32.7973 11.1018 31.0005 11.1073 29.1537V15.1381C11.0968 14.972 11.1211 14.8056 11.1788 14.649C11.2365 14.4925 11.3264 14.3492 11.4429 14.2279C11.5594 14.1066 11.7001 14.01 11.8562 13.9439C12.0123 13.8779 12.1806 13.8438 12.3507 13.8438C12.5208 13.8438 12.6892 13.8779 12.8453 13.9439C13.0014 14.01 13.1421 14.1066 13.2586 14.2279C13.3751 14.3492 13.4649 14.4925 13.5227 14.649C13.5804 14.8056 13.6047 14.972 13.5942 15.1381V24.1756C13.5952 24.9198 13.8548 25.6415 14.3304 26.2224C14.8059 26.8032 15.4692 27.2087 16.2114 27.3722C16.9535 27.5357 17.7304 27.4476 18.4146 27.1222C19.0988 26.7969 19.6496 26.2537 19.9767 25.5819C20.4863 25.8494 21.0581 25.9835 21.6363 25.9711C22.2146 25.9587 22.7798 25.8002 23.2769 25.511C23.7741 25.2218 24.1864 24.8118 24.4737 24.3207C24.7611 23.8297 24.9137 23.2742 24.9169 22.7084V8.54279C24.9063 8.37669 24.9307 8.21025 24.9884 8.05372C25.0461 7.89718 25.136 7.75386 25.2525 7.63259C25.369 7.51133 25.5096 7.41469 25.6658 7.34863C25.8219 7.28257 25.9902 7.24849 26.1603 7.24849C26.3304 7.24849 26.4987 7.28257 26.6549 7.34863C26.811 7.41469 26.9516 7.51133 27.0681 7.63259C27.1846 7.75386 27.2745 7.89718 27.3323 8.05372C27.39 8.21025 27.4143 8.37669 27.4038 8.54279V24.1944C27.4029 24.4221 27.4791 24.6437 27.6205 24.8246C27.7619 25.0055 27.9605 25.1355 28.1854 25.1944C28.4102 25.2533 28.6487 25.2377 28.8636 25.1501C29.0785 25.0624 29.2576 24.9077 29.3731 24.71L31.6204 20.9037C31.9647 20.3205 32.5176 19.8828 33.1725 19.675C33.8273 19.4672 34.5376 19.5042 35.1663 19.7787L27.0923 33.3725Z" fill="#3A3A4E"/>
</svg>
