<svg xmlns="http://www.w3.org/2000/svg" width="150" height="38"><defs><path id="a" fill="currentColor" d="M45.3 24.9v3.5H35V12.8h4v12zm2 3.5h3.9V17.5h-3.9v11zm4.2-14.2a2.2 2.2 0 01-2.3 2.2 2.2 2.2 0 01-2.2-2.2 2.3 2.3 0 012.2-2.2c1.3 0 2.3 1 2.3 2.2zm5.7 8.8c0 1.5.8 2.4 2 2.4s2-.9 2-2.2v-.4c0-1.3-.8-2.2-2-2.2s-2 .9-2 2.4m4.2-4.7v-.8H65v11.2c0 3.2-2.2 5.3-5.7 5.3-3.6 0-5.4-1.8-5.8-4.4l3.8-.1c0 .8.7 1.3 1.9 1.3s2-.6 2-1.8v-1c-.5.3-1.5.7-2.6.7-3.2 0-5.3-2.4-5.3-5.7 0-3.4 2.1-5.7 5.3-5.7a4.3 4.3 0 012.8 1m9.8-.1c.5-.4 1.2-.9 2.5-.9 2.5 0 4.2 1.5 4.2 4.3v6.8h-3.8v-5.8c0-1.2-.5-1.7-1.4-1.7-.9 0-1.5.6-1.5 1.7v5.8h-3.8V12.2h3.8v6zm14 5.7c0 1 .7 1.4 1.4 1.4l.9-.1v3.3l-1.8.2c-2.6 0-4.4-1.2-4.4-3.8v-4.1h-2v-3.3h2V14h3.9v3.5h2.3v3.3h-2.3v3zm8.2-5.7c.4-.4 1.1-.9 2.4-.9 2.6 0 4.3 1.5 4.3 4.3v6.8h-3.8v-5.8c0-1.2-.5-1.7-1.5-1.7-.9 0-1.4.6-1.4 1.7v5.8h-3.8V12.2h3.8v6zM106 23c0 1.5.8 2.4 2 2.4 1.3 0 2.1-.9 2.1-2.4s-.8-2.4-2-2.4c-1.3 0-2.1.9-2.1 2.4m8 0c0 3.4-2.5 5.7-6 5.7-3.4 0-5.9-2.3-5.9-5.7 0-3.4 2.5-5.7 6-5.7 3.4 0 5.9 2.3 5.9 5.7m8.6 5.4v-.7c-.4.5-1.2 1-2.6 1-2.5 0-4-1.5-4-4.2v-7h3.8v6c0 1.2.3 1.6 1.2 1.6.9 0 1.4-.5 1.4-1.5v-6h3.8v10.8h-3.6zm14.9-7.5l-3.9.2c0-.6-.2-1.1-.8-1.1-.5 0-.8.2-.8.6 0 .6.7.7 1.9 1 2 .6 3.6 1.3 3.6 3.3 0 2.2-1.6 3.8-4.7 3.8-3 0-4.6-1.2-4.8-3.6l3.8-.2c0 .6.2 1 1 1 .6 0 .9-.2.9-.6 0-.4-.2-.6-1.6-1-2.4-.6-4-1.1-4-3.4 0-2.2 1.8-3.6 4.7-3.6 3 0 4.5 1.5 4.6 3.6m5.6.9h3.1c0-1-.5-1.7-1.5-1.7s-1.5.7-1.6 1.7zm0 2.2c0 1 .5 1.7 1.6 1.7.8 0 1.2-.3 1.4-.8l3.9.2c-.4 2.2-2.6 3.6-5.2 3.6-3.4 0-5.7-2.2-5.7-5.7s2.3-5.7 5.6-5.7c3.2 0 5.4 2 5.4 5.5V24h-7zM0 7.4v7.3c0 .8.8 1.4 1.5 1.2.8-.3 1.5.3 1.5 1v.3c0 .6-.3 1-.9 1.2l-1.2.3c-.5.2-.9.6-.9 1.2v.2c0 .8.8 1.4 1.5 1.1l5-1.4c.8-.2 1.5.4 1.5 1.2v.2c0 .5-.3 1-.8 1.1L.9 24.1c-.5.2-.9.6-.9 1.2v.2c0 .8.8 1.4 1.5 1.2l10.1-2.9c.8-.2 1.5.4 1.5 1.2v.2c0 .5-.3 1-.9 1.2L1 29.5c-.5.2-.9.6-.9 1.2v.2c0 .8.7 1.4 1.5 1.2l15.2-4.3c.7-.2 1.4.3 1.4 1.1v.3c0 .5-.3 1-.8 1.1L.9 35c-.5.2-.9.6-.9 1.2 0 .9.9 1.5 1.7 1.3l17.4-5a2 2 0 001.5-1.9V2.7a2 2 0 00-2.6-2L1.5 5.5a2 2 0 00-1.5 2"/></defs></svg>
