<svg width="37" height="36" viewBox="0 0 37 36" fill="none" xmlns="http://www.w3.org/2000/svg">
<path d="M36.4968 36H29.0431V24.3067C29.0431 21.5183 28.9934 17.9288 25.1665 17.9288C21.2842 17.9288 20.6902 20.9667 20.6902 24.1036V35.9991H13.2367V11.953H20.3921V15.2391H20.4924C21.9493 12.7437 24.6683 11.2477 27.5524 11.355C35.107 11.355 36.5 16.3327 36.5 22.8087L36.4968 36ZM4.82641 8.66596C2.45351 8.66596 0.5 6.71016 0.5 4.33309C0.5 1.95602 2.4526 0 4.82551 0C7.19819 0 9.15057 1.95557 9.15102 4.33219C9.15102 6.70881 7.19887 8.66573 4.82641 8.66596ZM8.55318 36H1.09177V11.953H8.55318V36Z" fill="white"/>
</svg>
