<svg width="24" height="24" viewBox="0 0 24 24" fill="none" xmlns="http://www.w3.org/2000/svg">
<path fill-rule="evenodd" clip-rule="evenodd" d="M2.88548 5.77819C1.28813 5.77819 0 4.48375 0 2.8887C0 1.29444 1.28813 0 2.88548 0C4.47647 0 5.76818 1.29444 5.76818 2.8887C5.76818 4.48375 4.47647 5.77819 2.88548 5.77819ZM24 24H19.0279V16.2039C19.0279 14.3449 18.9953 11.9535 16.4429 11.9535C13.8551 11.9535 13.46 13.9797 13.46 16.0709V24H8.49272V7.96863H13.2605V10.1601H13.3281C13.9914 8.89994 15.615 7.57086 18.0347 7.57086C23.0696 7.57086 24 10.8904 24 15.2081V24ZM5.37413 23.9996H0.396874V7.96821H5.37413V23.9996Z" fill="#3A3A4E"/>
</svg>
