<svg width="188" height="34" viewBox="0 0 188 34" fill="none" xmlns="http://www.w3.org/2000/svg">
<path d="M61.6532 27.485V17.1581L56.4761 27.2776H53.911L48.7071 17.1581V27.485H44.8076V8.36816H48.249L55.1852 21.5038L62.0746 8.36816H65.4925V27.485H61.6532Z" fill="#3A3A4E"/>
<path d="M79.6962 19.3308V27.4916H76.1512V26.4103C75.7197 26.8556 75.203 27.206 74.6329 27.44C74.0628 27.674 73.4515 27.7864 72.837 27.7705C70.2217 27.7705 68.5127 26.4103 68.5127 23.8601C68.5127 20.9221 70.9507 19.9768 73.7165 19.8476L76.0275 19.7218V19.2118C76.0275 17.8822 75.4757 17.1715 74.3553 17.1715C73.1012 17.1715 72.546 18.042 72.546 18.9091L68.8672 18.7561C68.8672 16.4303 70.9541 14.0296 74.2951 14.0296C77.7866 14.016 79.6962 15.8556 79.6962 19.3308ZM74.0677 22.2959C72.9607 22.3469 72.1815 22.7311 72.1815 23.6764C72.1815 24.5435 72.8102 24.8768 73.6898 24.8768C75.0275 24.8768 76.0308 24.1355 76.0308 22.7311V22.1667L74.0677 22.2959Z" fill="#3A3A4E"/>
<path d="M95.2542 19.409V27.4848H91.5754V20.1231C91.5754 18.4229 90.6958 17.4912 89.2912 17.4912C87.833 17.4912 86.8766 18.5657 86.8766 20.1503V27.4848H83.1978V14.2778H86.6659V15.638C87.2444 14.7199 88.4016 14.0296 90.1607 14.0296C93.1673 14.016 95.2542 15.978 95.2542 19.409Z" fill="#3A3A4E"/>
<path d="M98.6688 33.9999L101.996 26.3083L96.9097 14.2778H100.956L103.95 22.1497L106.913 14.2778H110.986L102.665 33.9999H98.6688Z" fill="#3A3A4E"/>
<path d="M124.531 27.485V19.4329H116.916V27.485H113.033V8.36816H116.929V15.934H124.544V8.36816H128.417V27.485H124.531Z" fill="#3A3A4E"/>
<path d="M142.577 19.3308V27.4916H139.032V26.4103C138.6 26.8557 138.083 27.2062 137.512 27.4401C136.941 27.6741 136.329 27.7865 135.714 27.7705C133.099 27.7705 131.39 26.4103 131.39 23.8601C131.39 20.9221 133.828 19.9768 136.594 19.8476L138.908 19.7218V19.2118C138.908 17.8822 138.353 17.1715 137.236 17.1715C135.979 17.1715 135.427 18.042 135.427 18.9091L131.748 18.7561C131.748 16.4303 133.832 14.0296 137.176 14.0296C140.664 14.016 142.577 15.8556 142.577 19.3308ZM136.945 22.2959C135.841 22.3469 135.062 22.7311 135.062 23.6764C135.062 24.5435 135.691 24.8768 136.571 24.8768C137.908 24.8768 138.912 24.1355 138.912 22.7311V22.1667L136.945 22.2959Z" fill="#3A3A4E"/>
<path d="M158.132 19.409V27.4848H154.453V20.1231C154.453 18.4229 153.573 17.4912 152.165 17.4912C150.707 17.4912 149.754 18.5657 149.754 20.1503V27.4848H146.075V14.2778H149.543V15.638C150.119 14.7199 151.276 14.0296 153.035 14.0296C156.048 14.016 158.132 15.978 158.132 19.409Z" fill="#3A3A4E"/>
<path d="M171.051 27.4848V26.1247C170.382 27.019 169.014 27.7602 167.178 27.7602C163.499 27.7602 160.921 25.0399 160.921 20.8881C160.921 16.7363 163.509 14.0126 167.178 14.0126C168.85 14.0126 170.188 14.6246 170.857 15.4169V7.62671H174.499V27.4848H171.051ZM164.64 20.8915C164.64 23.2412 165.947 24.5435 167.784 24.5435C169.62 24.5435 170.85 23.3194 170.85 21.1703V20.5855C170.85 18.4637 169.593 17.2089 167.784 17.2089C165.974 17.2089 164.64 18.5385 164.64 20.8915Z" fill="#3A3A4E"/>
<path d="M187.839 18.2836L184.194 18.4876C184.144 17.5423 183.665 16.8792 182.522 16.8792C181.542 16.8792 181.037 17.2873 181.037 18.0013C181.037 18.9228 182.02 19.052 183.575 19.4601C186.167 20.1402 188 20.9664 188 23.3705C188 26.0534 186.063 27.7638 182.672 27.7638C179.355 27.7638 177.418 26.2302 177.141 23.4725L180.819 23.2685C180.87 24.2376 181.448 24.9041 182.702 24.9041C183.706 24.9041 184.338 24.4688 184.338 23.7003C184.338 22.9319 183.859 22.653 181.977 22.194C179.211 21.4765 177.375 20.8916 177.375 18.1816C177.375 15.6517 179.311 14.0161 182.579 14.0161C185.846 14.0161 187.612 15.8319 187.839 18.2836Z" fill="#3A3A4E"/>
<path d="M28.8753 15.366C28.5701 15.0495 28.2079 14.7956 27.8085 14.618L28.4472 13.9651C28.8408 13.5637 29.1319 13.0705 29.295 12.5286C29.4582 11.9866 29.4885 11.4123 29.3833 10.8557C29.2781 10.2991 29.0406 9.77709 28.6915 9.3352C28.3424 8.89332 27.8923 8.54496 27.3804 8.32049L27.6011 8.09607C28.1442 7.53259 28.4824 6.79785 28.5599 6.01285C28.6374 5.22786 28.4496 4.43943 28.0275 3.77745C27.6054 3.11546 26.9741 2.61939 26.2376 2.37095C25.5012 2.12251 24.7034 2.13652 23.9758 2.41067C23.797 1.84412 23.4779 1.33382 23.0492 0.928739C22.6205 0.52366 22.0967 0.237398 21.5279 0.0974261C20.9591 -0.0425462 20.3644 -0.0315311 19.801 0.129414C19.2376 0.29036 18.7244 0.595833 18.3105 1.01652L10.3074 9.14678L10.4579 8.57892C10.7979 7.2803 10.6169 5.89758 9.95466 4.73459C9.29244 3.57161 8.20319 2.72351 6.92628 2.37666C6.45488 2.24998 5.95332 2.31842 5.53145 2.56698C5.10958 2.81554 4.8018 3.22397 4.67552 3.7028L0.364639 20.0993C-0.249337 22.449 -0.0845891 24.939 0.833392 27.1839C1.75137 29.4288 3.37142 31.3035 5.44285 32.518C7.51429 33.7325 9.92165 34.2191 12.2925 33.9024C14.6633 33.5858 16.8653 32.4835 18.558 30.7663L28.8753 20.2762C29.5149 19.6246 29.8742 18.7417 29.8742 17.8211C29.8742 16.9005 29.5149 16.0176 28.8753 15.366ZM27.357 18.7324L17.0497 29.2395C15.6921 30.6277 13.9212 31.5203 12.0127 31.7784C10.1041 32.0365 8.16524 31.6456 6.49805 30.6664C4.83085 29.6873 3.52898 28.175 2.79525 26.3652C2.06152 24.5554 1.93714 22.5496 2.44149 20.6604L6.66207 4.5801C7.31478 4.83617 7.85136 5.3285 8.16867 5.96245C8.48598 6.5964 8.56163 7.32723 8.38107 8.01446L7.20051 12.5131C7.13936 12.7456 7.15547 12.9921 7.24633 13.2142C7.33719 13.4364 7.49771 13.6218 7.70292 13.7417C7.90814 13.8615 8.14655 13.909 8.38108 13.8769C8.61561 13.8447 8.83312 13.7347 8.99978 13.5638L19.8255 2.55348C20.0669 2.31902 20.3879 2.18818 20.7218 2.18818C21.0556 2.18818 21.3766 2.31902 21.6181 2.55348C21.7358 2.67315 21.8291 2.81522 21.8928 2.97159C21.9565 3.12795 21.9893 3.29553 21.9893 3.46478C21.9893 3.63402 21.9565 3.80161 21.8928 3.95797C21.8291 4.11433 21.7358 4.2564 21.6181 4.37607L13.4779 12.6525C13.2765 12.8573 13.1634 13.1349 13.1634 13.4244C13.1634 13.7139 13.2765 13.9916 13.4779 14.1963C13.6792 14.401 13.9523 14.516 14.237 14.516C14.5218 14.516 14.7949 14.401 14.9962 14.1963L23.1364 5.91984L24.2935 4.75691C24.405 4.61617 24.5443 4.50084 24.7025 4.41839C24.8606 4.33595 25.0341 4.28824 25.2115 4.27836C25.389 4.26849 25.5665 4.29667 25.7325 4.36107C25.8986 4.42547 26.0495 4.52466 26.1754 4.65219C26.3013 4.77972 26.3994 4.93275 26.4634 5.10134C26.5273 5.26993 26.5557 5.45031 26.5467 5.63078C26.5376 5.81124 26.4913 5.98775 26.4108 6.14886C26.3304 6.30996 26.2174 6.45205 26.0794 6.56591L23.618 9.06857L15.926 16.8894C15.7785 17.0446 15.6796 17.2407 15.6417 17.453C15.6038 17.6653 15.6287 17.8843 15.7132 18.0822C15.7976 18.2802 15.9379 18.4482 16.1162 18.5652C16.2946 18.6821 16.503 18.7427 16.7152 18.7392C16.8563 18.7401 16.9962 18.7124 17.1266 18.6575C17.257 18.6026 17.3752 18.5217 17.4744 18.4196L25.1664 10.6157C25.2841 10.4961 25.4239 10.4011 25.5776 10.3364C25.7314 10.2716 25.8963 10.2382 26.0627 10.2382C26.2292 10.2382 26.394 10.2716 26.5478 10.3364C26.7016 10.4011 26.8413 10.4961 26.959 10.6157C27.0767 10.7354 27.1701 10.8775 27.2338 11.0338C27.2975 11.1902 27.3303 11.3578 27.3303 11.527C27.3303 11.6963 27.2975 11.8639 27.2338 12.0202C27.1701 12.1766 27.0767 12.3187 26.959 12.4383L24.0461 15.366L18.1165 21.3983C17.9303 21.6059 17.8301 21.8785 17.8366 22.1594C17.8432 22.4403 17.956 22.7078 18.1516 22.9063C18.3472 23.1047 18.6106 23.2188 18.8868 23.2249C19.1631 23.2309 19.431 23.1284 19.6348 22.9386L25.5644 16.9098C25.8021 16.6681 26.1245 16.5323 26.4607 16.5323C26.7969 16.5323 27.1193 16.6681 27.357 16.9098C27.5947 17.1515 27.7282 17.4793 27.7282 17.8211C27.7282 18.1629 27.5947 18.4907 27.357 18.7324V18.7324Z" fill="#3A3A4E"/>
<path d="M8.61524 15.6721C8.41469 15.8773 8.30212 16.1548 8.30212 16.444C8.30212 16.7332 8.41469 17.0107 8.61524 17.2159C9.54222 18.1589 10.0629 19.4377 10.0629 20.771C10.0629 22.1042 9.54222 23.383 8.61524 24.326C8.4139 24.5307 8.30078 24.8084 8.30078 25.0979C8.30078 25.3874 8.4139 25.6651 8.61524 25.8698C8.81658 26.0745 9.08967 26.1895 9.37441 26.1895C9.65915 26.1895 9.93224 26.0745 10.1336 25.8698C11.4627 24.5163 12.2092 22.6819 12.2092 20.7693C12.2092 18.8566 11.4627 17.0222 10.1336 15.6687C9.93137 15.4653 9.6582 15.3514 9.37372 15.3521C9.08924 15.3527 8.81656 15.4678 8.61524 15.6721V15.6721Z" fill="#3A3A4E"/>
</svg>
