<svg width="49" height="78" viewBox="0 0 49 78" fill="none" xmlns="http://www.w3.org/2000/svg">
<path d="M43.4563 1.03009C42.5666 0.796494 41.6396 0.74056 40.7283 0.865462C39.8169 0.990365 38.9391 1.29366 38.145 1.75803C37.351 2.22239 36.6562 2.8387 36.1005 3.57173C35.5447 4.30476 35.139 5.14013 34.9064 6.03009L30.8263 21.4901L26.7463 6.03009C26.5357 5.11624 26.1437 4.25403 25.5934 3.49464C25.0431 2.73526 24.3459 2.09419 23.5431 1.6095C22.7403 1.1248 21.8482 0.806364 20.9199 0.673095C19.9916 0.539826 19.046 0.594436 18.1393 0.833694C17.2325 1.07295 16.383 1.49197 15.6414 2.06587C14.8997 2.63978 14.2808 3.35687 13.8217 4.17456C13.3625 4.99225 13.0722 5.89386 12.9683 6.82588C12.8643 7.7579 12.9486 8.70131 13.2163 9.6001L17.1163 24.4001C15.7584 24.2361 14.3821 24.4736 13.1576 25.0832C11.9331 25.6928 10.9141 26.6477 10.2263 27.8301C9.82651 28.5037 9.54578 29.2412 9.39636 30.0101C8.28304 29.7356 7.11968 29.7356 6.00635 30.0101C5.11639 30.2428 4.28101 30.6486 3.54798 31.2043C2.81494 31.76 2.19862 32.4547 1.73425 33.2488C1.26989 34.0429 0.966579 34.9207 0.841676 35.832C0.716774 36.7434 0.772753 37.6704 1.00635 38.5601L2.53638 44.3601V55.8501C2.65985 61.6787 5.06199 67.227 9.22779 71.3055C13.3936 75.3839 18.9914 77.668 24.8213 77.668C30.6512 77.668 36.2491 75.3839 40.4149 71.3055C44.5807 67.227 46.9828 61.6787 47.1063 55.8501V44.8201C47.107 42.8592 46.6134 40.9297 45.6714 39.2099C44.7293 37.49 43.3691 36.0353 41.7163 34.9801L48.4164 9.58009C48.8895 7.78867 48.6331 5.88274 47.7034 4.28004C46.7736 2.67735 45.2463 1.50864 43.4563 1.03009ZM19.3163 5.2901C19.6453 5.20115 19.9887 5.17825 20.3265 5.22275C20.6644 5.26724 20.9902 5.37823 21.2849 5.54932C21.5797 5.7204 21.8376 5.94817 22.0438 6.2195C22.25 6.49082 22.4004 6.80031 22.4863 7.1301L28.6764 30.6301L22.8363 28.8601L17.4663 8.5101C17.3728 8.17717 17.3466 7.82892 17.3893 7.48575C17.432 7.14257 17.5427 6.81136 17.715 6.5115C17.8872 6.21165 18.1176 5.94918 18.3926 5.73946C18.6675 5.52973 18.9816 5.37696 19.3163 5.2901ZM14.0264 30.0201C14.3749 29.4274 14.9433 28.9961 15.608 28.8201C16.2728 28.6441 16.9801 28.7375 17.5763 29.0801C17.9465 29.3006 18.2559 29.6099 18.4763 29.9801C18.1681 30.3491 17.94 30.7782 17.8064 31.2401C17.4135 32.5233 17.2792 33.8718 17.4114 35.2073C17.5436 36.5428 17.9395 37.8388 18.5763 39.0201C19.2939 40.3534 20.298 41.5111 21.5164 42.4101C21.3959 42.8491 21.1626 43.249 20.8398 43.57C20.5171 43.891 20.116 44.122 19.6764 44.2401C19.3474 44.329 19.004 44.3519 18.6661 44.3074C18.3283 44.2629 18.0025 44.1519 17.7078 43.9809C17.413 43.8098 17.1552 43.582 16.949 43.3107C16.7428 43.0394 16.5923 42.7299 16.5063 42.4001C16.508 42.3668 16.508 42.3334 16.5063 42.3001C16.512 42.2335 16.512 42.1666 16.5063 42.1001L14.6364 35.0201L13.8363 32.0201C13.732 31.6911 13.6951 31.3444 13.7278 31.0008C13.7604 30.6571 13.862 30.3236 14.0264 30.0201ZM5.54639 35.5001C5.71739 35.2045 5.94485 34.9456 6.21594 34.7379C6.48704 34.5303 6.79643 34.3782 7.12634 34.2901C7.34187 34.2345 7.56382 34.2076 7.78638 34.2101C8.36016 34.2101 8.91789 34.3991 9.37341 34.748C9.82894 35.0969 10.1569 35.5861 10.3064 36.1401L12.1664 43.2201C12.2953 43.7156 12.275 44.2382 12.1082 44.7222C11.9413 45.2063 11.6352 45.6303 11.2283 45.9411C10.8214 46.2519 10.3317 46.4356 9.8208 46.4693C9.30989 46.5029 8.80045 46.3849 8.35632 46.1301C8.06077 45.9591 7.80185 45.7315 7.59424 45.4604C7.38663 45.1894 7.23442 44.88 7.14636 44.5501C7.10579 44.3788 7.04179 44.2139 6.9563 44.0601C6.94775 43.8851 6.92439 43.7111 6.88635 43.5401L5.27637 37.4701C5.10179 36.8036 5.19892 36.095 5.54639 35.5001ZM42.7263 44.8201V55.8801C42.6159 60.5503 40.6831 64.992 37.3411 68.256C33.999 71.5199 29.5128 73.3472 24.8413 73.3472C20.1698 73.3472 15.6837 71.5199 12.3417 68.256C8.99962 64.992 7.06674 60.5503 6.9563 55.8801V50.3401C8.45294 50.9635 10.1196 51.0481 11.6716 50.5794C13.2237 50.1106 14.5649 49.1177 15.4663 47.7701C16.5309 48.3935 17.7426 48.7215 18.9763 48.7201C19.5805 48.7231 20.1825 48.6457 20.7664 48.4901C21.838 48.2082 22.8273 47.6759 23.6531 46.9371C24.4789 46.1982 25.1175 45.2739 25.5164 44.2401L34.1764 46.8501C34.3797 46.9169 34.5924 46.9507 34.8064 46.9501C35.3369 46.9543 35.8509 46.7667 36.254 46.4218C36.6571 46.0769 36.922 45.598 36.9999 45.0733C37.0778 44.5486 36.9635 44.0134 36.678 43.5663C36.3925 43.1191 35.9551 42.7902 35.4463 42.6401L25.8663 39.7501C24.5004 39.3278 23.3377 38.4176 22.6 37.1929C21.8622 35.9683 21.6011 34.515 21.8663 33.1101L37.5464 37.8401C37.8064 37.9201 38.0564 38.0101 38.2964 38.1101C39.6122 38.6699 40.7339 39.6047 41.5217 40.798C42.3096 41.9913 42.7285 43.3902 42.7263 44.8201ZM44.1864 8.4601L37.6263 33.2801L32.3363 31.6801C32.6303 31.4096 32.8447 31.0637 32.9563 30.6801L39.1564 7.1501C39.2142 6.79133 39.3464 6.44865 39.5448 6.14418C39.7432 5.83971 40.0033 5.58021 40.3081 5.38241C40.6129 5.18462 40.9558 5.05291 41.3147 4.9958C41.6736 4.9387 42.0404 4.95747 42.3916 5.05089C42.7428 5.1443 43.0706 5.31028 43.3536 5.53815C43.6367 5.76601 43.8689 6.05069 44.0352 6.37381C44.2014 6.69693 44.2981 7.05132 44.319 7.41411C44.3399 7.7769 44.2845 8.14004 44.1564 8.4801L44.1864 8.4601Z" fill="#3A3A4E"/>
</svg>
