<svg width="96" height="96" viewBox="0 0 96 96" fill="none" xmlns="http://www.w3.org/2000/svg">
<path d="M47.8363 94.96C39.8619 94.9494 32.2171 91.7769 26.5783 86.1381C20.9395 80.4993 17.767 72.8545 17.7564 64.88V54.4L16.4864 49.58C15.4894 45.7862 16.0382 41.7519 18.0124 38.3624C19.9865 34.9728 23.2247 32.5048 27.0164 31.5L27.4764 31.38C28.3857 30.1803 29.4713 29.125 30.6963 28.25L28.6963 20.57C27.859 17.3809 28.1107 14.0034 29.4113 10.9736C30.7119 7.94371 32.9872 5.43493 35.8759 3.84528C38.7646 2.25562 42.1014 1.67612 45.357 2.19872C48.6125 2.72131 51.6003 4.31609 53.8463 6.73001C55.2302 5.23777 56.9073 4.04739 58.7726 3.23347C60.6379 2.41956 62.6513 1.99962 64.6864 2C66.9511 2.00027 69.1854 2.52027 71.2176 3.51996C73.2497 4.51964 75.0253 5.97235 76.4076 7.76622C77.79 9.56009 78.7423 11.6473 79.1911 13.8671C79.6399 16.0868 79.5733 18.38 78.9964 20.57L73.4964 41.42C76.3763 44.9102 77.9498 49.295 77.9463 53.82V64.88C77.9357 72.8597 74.7591 80.509 69.1138 86.1487C63.4685 91.7883 55.816 94.9574 47.8363 94.96Z" fill="white"/>
<path d="M66.4563 10.0301C65.5666 9.79649 64.6396 9.74056 63.7283 9.86546C62.8169 9.99037 61.9391 10.2937 61.145 10.758C60.351 11.2224 59.6562 11.8387 59.1005 12.5717C58.5447 13.3048 58.139 14.1401 57.9064 15.0301L53.8263 30.4901L49.7463 15.0301C49.5357 14.1162 49.1437 13.254 48.5934 12.4946C48.0431 11.7353 47.3459 11.0942 46.5431 10.6095C45.7403 10.1248 44.8482 9.80636 43.9199 9.67309C42.9916 9.53983 42.046 9.59444 41.1393 9.83369C40.2325 10.073 39.383 10.492 38.6414 11.0659C37.8997 11.6398 37.2808 12.3569 36.8217 13.1746C36.3625 13.9922 36.0722 14.8939 35.9683 15.8259C35.8643 16.7579 35.9486 17.7013 36.2163 18.6001L40.1163 33.4001C38.7584 33.2361 37.3821 33.4736 36.1576 34.0832C34.9331 34.6928 33.9141 35.6477 33.2263 36.8301C32.8265 37.5037 32.5458 38.2412 32.3964 39.0101C31.283 38.7356 30.1197 38.7356 29.0063 39.0101C28.1164 39.2428 27.281 39.6486 26.548 40.2043C25.8149 40.76 25.1986 41.4547 24.7343 42.2488C24.2699 43.0429 23.9666 43.9207 23.8417 44.832C23.7168 45.7434 23.7728 46.6704 24.0063 47.5601L25.5364 53.3601V64.8501C25.6599 70.6787 28.062 76.227 32.2278 80.3055C36.3936 84.3839 41.9914 86.668 47.8213 86.668C53.6512 86.668 59.2491 84.3839 63.4149 80.3055C67.5807 76.227 69.9828 70.6787 70.1063 64.8501V53.8201C70.107 51.8592 69.6134 49.9297 68.6714 48.2099C67.7293 46.49 66.3691 45.0353 64.7163 43.9801L71.4164 18.5801C71.8895 16.7887 71.6331 14.8827 70.7034 13.28C69.7736 11.6773 68.2463 10.5086 66.4563 10.0301ZM42.3163 14.2901C42.6453 14.2012 42.9887 14.1783 43.3265 14.2227C43.6644 14.2672 43.9902 14.3782 44.2849 14.5493C44.5797 14.7204 44.8376 14.9482 45.0438 15.2195C45.25 15.4908 45.4004 15.8003 45.4863 16.1301L51.6764 39.6301L45.8363 37.8601L40.4663 17.5101C40.3728 17.1772 40.3466 16.8289 40.3893 16.4857C40.432 16.1426 40.5427 15.8114 40.715 15.5115C40.8872 15.2116 41.1176 14.9492 41.3926 14.7395C41.6675 14.5297 41.9816 14.377 42.3163 14.2901ZM37.0264 39.0201C37.3749 38.4274 37.9433 37.9961 38.608 37.8201C39.2728 37.6441 39.9801 37.7375 40.5763 38.0801C40.9465 38.3006 41.2559 38.6099 41.4763 38.9801C41.1681 39.3491 40.94 39.7782 40.8064 40.2401C40.4135 41.5233 40.2792 42.8718 40.4114 44.2073C40.5436 45.5428 40.9395 46.8388 41.5763 48.0201C42.2939 49.3534 43.298 50.5111 44.5164 51.4101C44.3959 51.8491 44.1626 52.249 43.8398 52.57C43.5171 52.891 43.116 53.122 42.6764 53.2401C42.3474 53.329 42.004 53.3519 41.6661 53.3074C41.3283 53.2629 41.0025 53.1519 40.7078 52.9809C40.413 52.8098 40.1552 52.582 39.949 52.3107C39.7428 52.0394 39.5923 51.7299 39.5063 51.4001C39.508 51.3668 39.508 51.3334 39.5063 51.3001C39.512 51.2335 39.512 51.1666 39.5063 51.1001L37.6364 44.0201L36.8363 41.0201C36.732 40.6911 36.6951 40.3444 36.7278 40.0008C36.7604 39.6571 36.862 39.3236 37.0264 39.0201ZM28.5464 44.5001C28.7174 44.2045 28.9448 43.9456 29.2159 43.7379C29.487 43.5303 29.7964 43.3782 30.1263 43.2901C30.3419 43.2345 30.5638 43.2076 30.7864 43.2101C31.3602 43.2101 31.9179 43.3991 32.3734 43.748C32.8289 44.0969 33.1569 44.5861 33.3064 45.1401L35.1664 52.2201C35.2953 52.7156 35.275 53.2382 35.1082 53.7222C34.9413 54.2063 34.6352 54.6303 34.2283 54.9411C33.8214 55.2519 33.3317 55.4356 32.8208 55.4693C32.3099 55.5029 31.8005 55.3849 31.3563 55.1301C31.0608 54.9591 30.8019 54.7315 30.5942 54.4604C30.3866 54.1894 30.2344 53.88 30.1464 53.5501C30.1058 53.3788 30.0418 53.2139 29.9563 53.0601C29.9478 52.8851 29.9244 52.7111 29.8864 52.5401L28.2764 46.4701C28.1018 45.8036 28.1989 45.095 28.5464 44.5001ZM65.7263 53.8201V64.8801C65.6159 69.5503 63.6831 73.992 60.3411 77.256C56.999 80.5199 52.5128 82.3472 47.8413 82.3472C43.1698 82.3472 38.6837 80.5199 35.3417 77.256C31.9996 73.992 30.0667 69.5503 29.9563 64.8801V59.3401C31.4529 59.9635 33.1196 60.0481 34.6716 59.5794C36.2237 59.1106 37.5649 58.1177 38.4663 56.7701C39.5309 57.3935 40.7426 57.7215 41.9763 57.7201C42.5805 57.7231 43.1825 57.6457 43.7664 57.4901C44.838 57.2082 45.8273 56.6759 46.6531 55.9371C47.4789 55.1982 48.1175 54.2739 48.5164 53.2401L57.1764 55.8501C57.3797 55.9169 57.5924 55.9507 57.8064 55.9501C58.3369 55.9543 58.8509 55.7667 59.254 55.4218C59.6571 55.0769 59.922 54.598 59.9999 54.0733C60.0778 53.5486 59.9635 53.0134 59.678 52.5663C59.3925 52.1191 58.9551 51.7902 58.4463 51.6401L48.8663 48.7501C47.5004 48.3278 46.3377 47.4176 45.6 46.1929C44.8622 44.9683 44.6011 43.515 44.8663 42.1101L60.5464 46.8401C60.8064 46.9201 61.0564 47.0101 61.2964 47.1101C62.6122 47.6699 63.7339 48.6047 64.5217 49.798C65.3096 50.9913 65.7285 52.3902 65.7263 53.8201ZM67.1864 17.4601L60.6263 42.2801L55.3363 40.6801C55.6303 40.4096 55.8447 40.0637 55.9563 39.6801L62.1564 16.1501C62.2142 15.7913 62.3464 15.4486 62.5448 15.1442C62.7432 14.8397 63.0033 14.5802 63.3081 14.3824C63.6129 14.1846 63.9558 14.0529 64.3147 13.9958C64.6736 13.9387 65.0404 13.9575 65.3916 14.0509C65.7428 14.1443 66.0706 14.3103 66.3536 14.5381C66.6367 14.766 66.8689 15.0507 67.0352 15.3738C67.2014 15.6969 67.2981 16.0513 67.319 16.4141C67.3399 16.7769 67.2845 17.14 67.1564 17.4801L67.1864 17.4601Z" fill="#3A3A4E"/>
<path d="M57.036 58.4501C53.5325 57.3976 49.7547 57.7771 46.5305 59.5054C43.3064 61.2337 40.8989 64.1698 39.8359 67.6701C39.7512 67.9459 39.7217 68.2357 39.7493 68.5228C39.7768 68.81 39.8609 69.0889 39.9966 69.3435C40.1323 69.5981 40.3168 69.8234 40.5398 70.0065C40.7628 70.1895 41.0199 70.3267 41.296 70.4101C41.5028 70.4767 41.7188 70.5104 41.936 70.5101C42.4099 70.5106 42.8713 70.358 43.2515 70.0751C43.6317 69.7922 43.9103 69.3941 44.046 68.9401C44.7692 66.5544 46.4096 64.5531 48.6069 63.3757C50.8043 62.1983 53.3791 61.9409 55.766 62.6601C56.0456 62.7551 56.3414 62.7928 56.6359 62.771C56.9304 62.7492 57.2175 62.6684 57.4801 62.5333C57.7427 62.3982 57.9754 62.2116 58.1643 61.9847C58.3533 61.7578 58.4946 61.4951 58.5798 61.2124C58.6651 60.9297 58.6926 60.6327 58.6606 60.3391C58.6287 60.0456 58.5381 59.7615 58.394 59.5037C58.25 59.2459 58.0555 59.0198 57.8221 58.8388C57.5888 58.6578 57.3215 58.5256 57.036 58.4501Z" fill="#3A3A4E"/>
</svg>
