<svg width="45" height="57" viewBox="0 0 45 57" fill="none" xmlns="http://www.w3.org/2000/svg">
<path d="M5.57059 35.155C6.37743 35.1552 7.17307 34.9661 7.89351 34.6029C8.29102 35.5304 8.952 36.3209 9.79449 36.8764C10.637 37.4319 11.624 37.728 12.6331 37.7279C13.472 37.7328 14.299 37.5287 15.0393 37.1341C15.4567 38.0174 16.1165 38.764 16.9418 39.2868C17.767 39.8096 18.7239 40.0872 19.7008 40.0872C20.3557 40.0865 21.0044 39.961 21.6123 39.7175L21.6175 50.6706C21.587 51.366 21.6977 52.0604 21.9428 52.7119C22.1879 53.3635 22.5624 53.9586 23.0437 54.4615C23.5251 54.9643 24.1032 55.3646 24.7434 55.638C25.3835 55.9114 26.0724 56.0524 26.7685 56.0524C27.4646 56.0524 28.1535 55.9114 28.7937 55.638C29.4338 55.3646 30.012 54.9643 30.4933 54.4615C30.9747 53.9586 31.3492 53.3635 31.5943 52.7119C31.8394 52.0604 31.95 51.366 31.9196 50.6706L31.9196 30.6393L32.3571 31.3998C33.3593 33.1241 35.0043 34.3807 36.9315 34.8943C38.8587 35.4078 40.9109 35.1363 42.6383 34.1393C43.2755 33.7696 43.7401 33.1624 43.9305 32.4507C44.1208 31.739 44.0214 30.981 43.6539 30.3425L31.0654 8.556C28.8875 4.80759 25.3179 2.07056 21.1327 0.940141C16.9476 -0.190276 12.4853 0.377332 8.71644 2.51952L8.64873 2.58723C6.15966 4.03069 4.09301 6.10215 2.65533 8.59455C1.21765 11.087 0.459289 13.913 0.45602 16.7904L0.456005 30.0404C0.45597 30.7175 0.589328 31.388 0.848442 32.0136C1.10756 32.6392 1.48736 33.2077 1.96617 33.6865C2.44498 34.1653 3.01341 34.5451 3.63901 34.8042C4.26461 35.0633 4.93511 35.1967 5.61225 35.1966L5.57059 35.155ZM3.65916 30.0039L3.65393 16.7487C3.66262 14.4542 4.26662 12.2013 5.40687 10.2102C6.54712 8.2191 8.1846 6.55798 10.1591 5.38931L10.2164 5.33203C13.2411 3.58707 16.8344 3.11324 20.2079 4.01449C23.5815 4.91573 26.4598 7.11846 28.2112 10.1393L40.5915 31.53C39.6246 31.957 38.5342 32.0124 37.5291 31.6857C36.5239 31.359 35.6745 30.673 35.1435 29.7591L31.6852 23.78C31.5061 23.4723 31.2307 23.2323 30.9015 23.0968C30.5723 22.9613 30.2077 22.938 29.8639 23.0305C29.5202 23.1229 29.2164 23.326 28.9996 23.6083C28.7828 23.8906 28.665 24.2365 28.6643 24.5925L28.6643 50.6341C28.6804 50.8951 28.6429 51.1565 28.5541 51.4024C28.4653 51.6482 28.3271 51.8733 28.1481 52.0637C27.969 52.2542 27.7528 52.406 27.5129 52.5097C27.2729 52.6134 27.0143 52.667 26.7529 52.667C26.4915 52.667 26.2328 52.6134 25.9929 52.5097C25.753 52.406 25.5368 52.2542 25.3577 52.0637C25.1787 51.8733 25.0405 51.6482 24.9517 51.4023C24.8629 51.1565 24.8254 50.895 24.8414 50.6341L24.8571 34.931L24.8571 32.8476C24.845 32.4261 24.6691 32.0258 24.3666 31.7319C24.0642 31.4379 23.659 31.2735 23.2373 31.2735C22.8155 31.2735 22.4104 31.4379 22.1079 31.7319C21.8055 32.0258 21.6295 32.4261 21.6175 32.8477L21.6175 34.931C21.6178 35.3101 21.5056 35.6808 21.2951 35.996C21.0846 36.3113 20.7852 36.557 20.435 36.702C20.0847 36.847 19.6993 36.8848 19.3275 36.8106C18.9558 36.7364 18.6144 36.5536 18.3466 36.2852C18.1691 36.1084 18.0284 35.8981 17.9328 35.6665C17.8371 35.435 17.7883 35.1868 17.7893 34.9362L17.7894 32.5716L17.7894 30.4883C17.7773 30.0667 17.6014 29.6664 17.2989 29.3725C16.9965 29.0786 16.5913 28.9141 16.1696 28.9141C15.7478 28.9141 15.3427 29.0785 15.0402 29.3725C14.7378 29.6664 14.5618 30.0667 14.5498 30.4883L14.5498 32.5716C14.5198 33.0582 14.3054 33.5151 13.9502 33.8491C13.595 34.183 13.1258 34.369 12.6383 34.369C12.1508 34.369 11.6816 34.183 11.3264 33.849C10.9713 33.5151 10.7568 33.0582 10.7268 32.5716L10.7268 30.0091L10.7268 27.9258C10.7265 27.7127 10.6842 27.5018 10.6024 27.3051C10.5205 27.1084 10.4007 26.9298 10.2498 26.7793C10.0989 26.6289 9.91988 26.5097 9.72292 26.4285C9.52595 26.3473 9.3149 26.3057 9.10184 26.306C8.88879 26.3063 8.6779 26.3486 8.48119 26.4305C8.28448 26.5123 8.10581 26.6321 7.9554 26.783C7.80499 26.9339 7.68577 27.113 7.60455 27.3099C7.52333 27.5069 7.48172 27.7179 7.48206 27.931L7.48206 30.0143C7.48032 30.3919 7.36699 30.7606 7.15635 31.0739C6.9457 31.3873 6.64713 31.6314 6.29814 31.7756C5.94916 31.9197 5.56536 31.9575 5.19497 31.8841C4.82458 31.8108 4.48414 31.6296 4.21644 31.3633C4.03764 31.1853 3.89624 30.9733 3.80053 30.7399C3.70483 30.5064 3.65677 30.2562 3.65916 30.0039V30.0039Z" fill="#3A3A4E"/>
</svg>
