<svg width="100" height="100" viewBox="0 0 100 100" fill="none" xmlns="http://www.w3.org/2000/svg">
<path d="M29.164 25.0821C31.5653 22.679 34.4872 20.8605 37.7037 19.7672C40.9202 18.674 44.3451 18.3353 47.7134 18.7774C51.0817 19.2194 54.3032 20.4304 57.1287 22.3166C59.9542 24.2028 62.3079 26.7137 64.0078 29.655L76.6276 51.4623C77.1885 52.4308 77.5531 53.5003 77.7006 54.6097C77.8482 55.7191 77.7758 56.8467 77.4875 57.9281C77.1993 59.0096 76.7008 60.0236 76.0207 60.9124C75.3405 61.8012 74.4919 62.5473 73.5234 63.1082C71.1491 64.488 68.4035 65.0924 65.6692 64.8373L65.6692 74.6706C65.6523 77.5507 64.4964 80.307 62.4539 82.3376C60.4114 84.3681 57.6483 85.5079 54.7682 85.5079C51.8881 85.5079 49.125 84.3681 47.0825 82.3376C45.04 80.307 43.884 77.5507 43.8671 74.6707L43.8515 69.155C42.7906 68.7578 41.7992 68.1953 40.914 67.4883L40.6223 67.4884C38.0477 67.4916 35.5556 66.5797 33.5911 64.9155V64.9155C32.1601 64.9157 30.7432 64.634 29.4211 64.0866C28.0991 63.5391 26.8978 62.7365 25.886 61.7247C24.8742 60.7129 24.0716 59.5116 23.5241 58.1896C22.9767 56.8675 22.695 55.4506 22.6952 54.0196L22.69 40.7748C22.6781 37.861 23.2442 34.9737 24.3554 32.2801C25.4667 29.5865 27.1011 27.1399 29.164 25.0821V25.0821Z" fill="white"/>
<path d="M33.5706 59.155C34.3774 59.1552 35.1731 58.9661 35.8935 58.6029C36.291 59.5304 36.952 60.3209 37.7945 60.8764C38.637 61.4319 39.624 61.728 40.6331 61.7279C41.472 61.7328 42.299 61.5287 43.0393 61.1341C43.4567 62.0174 44.1165 62.764 44.9418 63.2868C45.767 63.8096 46.7239 64.0872 47.7008 64.0872C48.3557 64.0865 49.0044 63.961 49.6123 63.7175L49.6175 74.6706C49.587 75.366 49.6977 76.0604 49.9428 76.7119C50.1879 77.3635 50.5624 77.9586 51.0437 78.4615C51.5251 78.9643 52.1032 79.3646 52.7434 79.638C53.3835 79.9114 54.0724 80.0524 54.7685 80.0524C55.4646 80.0524 56.1535 79.9114 56.7937 79.638C57.4338 79.3646 58.012 78.9643 58.4933 78.4615C58.9747 77.9586 59.3492 77.3635 59.5943 76.7119C59.8394 76.0604 59.95 75.366 59.9196 74.6706L59.9196 54.6393L60.3571 55.3998C61.3593 57.1241 63.0043 58.3807 64.9315 58.8943C66.8587 59.4078 68.9109 59.1363 70.6383 58.1393C71.2755 57.7696 71.7401 57.1624 71.9305 56.4507C72.1208 55.739 72.0214 54.981 71.6539 54.3425L59.0654 32.556C56.8875 28.8076 53.3179 26.0706 49.1327 24.9401C44.9476 23.8097 40.4853 24.3773 36.7164 26.5195L36.6487 26.5872C34.1597 28.0307 32.093 30.1021 30.6553 32.5946C29.2176 35.087 28.4593 37.913 28.456 40.7904L28.456 54.0404C28.456 54.7175 28.5893 55.388 28.8484 56.0136C29.1076 56.6392 29.4874 57.2077 29.9662 57.6865C30.445 58.1653 31.0134 58.5451 31.639 58.8042C32.2646 59.0633 32.9351 59.1967 33.6123 59.1966L33.5706 59.155ZM31.6592 54.0039L31.6539 40.7487C31.6626 38.4542 32.2666 36.2013 33.4069 34.2102C34.5471 32.2191 36.1846 30.558 38.1591 29.3893L38.2164 29.332C41.2411 27.5871 44.8344 27.1132 48.2079 28.0145C51.5815 28.9157 54.4598 31.1185 56.2112 34.1393L68.5915 55.53C67.6246 55.957 66.5342 56.0124 65.5291 55.6857C64.5239 55.359 63.6745 54.673 63.1435 53.7591L59.6852 47.78C59.5061 47.4723 59.2307 47.2323 58.9015 47.0968C58.5723 46.9613 58.2077 46.938 57.8639 47.0305C57.5202 47.1229 57.2164 47.326 56.9996 47.6083C56.7828 47.8906 56.665 48.2365 56.6643 48.5925L56.6643 74.6341C56.6804 74.8951 56.6429 75.1565 56.5541 75.4024C56.4653 75.6482 56.3271 75.8733 56.1481 76.0637C55.969 76.2542 55.7528 76.406 55.5129 76.5097C55.2729 76.6134 55.0143 76.667 54.7529 76.667C54.4915 76.667 54.2328 76.6134 53.9929 76.5097C53.753 76.406 53.5368 76.2542 53.3577 76.0637C53.1787 75.8733 53.0405 75.6482 52.9517 75.4023C52.8629 75.1565 52.8254 74.895 52.8414 74.6341L52.8571 58.931L52.8571 56.8477C52.845 56.4261 52.6691 56.0258 52.3666 55.7319C52.0642 55.4379 51.659 55.2735 51.2373 55.2735C50.8155 55.2735 50.4104 55.4379 50.1079 55.7319C49.8055 56.0258 49.6295 56.4261 49.6175 56.8477L49.6175 58.931C49.6178 59.3101 49.5056 59.6808 49.2951 59.996C49.0846 60.3113 48.7852 60.557 48.435 60.702C48.0847 60.847 47.6993 60.8848 47.3275 60.8106C46.9558 60.7364 46.6144 60.5536 46.3466 60.2852C46.1691 60.1084 46.0284 59.8981 45.9328 59.6665C45.8371 59.435 45.7883 59.1868 45.7893 58.9362L45.7894 56.5716L45.7894 54.4883C45.7773 54.0667 45.6014 53.6664 45.2989 53.3725C44.9965 53.0786 44.5913 52.9141 44.1696 52.9141C43.7478 52.9141 43.3427 53.0786 43.0402 53.3725C42.7378 53.6664 42.5618 54.0667 42.5498 54.4883L42.5498 56.5716C42.5198 57.0582 42.3054 57.5151 41.9502 57.8491C41.595 58.183 41.1258 58.369 40.6383 58.369C40.1508 58.369 39.6816 58.183 39.3264 57.849C38.9713 57.5151 38.7568 57.0582 38.7268 56.5716L38.7268 54.0091L38.7268 51.9258C38.7265 51.7127 38.6842 51.5018 38.6024 51.3051C38.5205 51.1084 38.4007 50.9298 38.2498 50.7793C38.0989 50.6289 37.9199 50.5097 37.7229 50.4285C37.5259 50.3473 37.3149 50.3057 37.1018 50.306C36.8888 50.3063 36.6779 50.3486 36.4812 50.4305C36.2845 50.5123 36.1058 50.6321 35.9554 50.783C35.805 50.9339 35.6858 51.113 35.6045 51.3099C35.5233 51.5069 35.4817 51.7179 35.4821 51.931L35.4821 54.0143C35.4803 54.3919 35.367 54.7606 35.1563 55.0739C34.9457 55.3873 34.6471 55.6314 34.2981 55.7756C33.9492 55.9197 33.5654 55.9575 33.195 55.8841C32.8246 55.8108 32.4841 55.6296 32.2164 55.3633C32.0376 55.1853 31.8962 54.9733 31.8005 54.7399C31.7048 54.5064 31.6568 54.2562 31.6592 54.0039V54.0039Z" fill="#3A3A4E"/>
</svg>
