<svg width="30" height="34" viewBox="0 0 30 34" fill="none" xmlns="http://www.w3.org/2000/svg">
<path d="M28.8753 15.366C28.5701 15.0495 28.2079 14.7956 27.8085 14.618L28.4472 13.9651C28.8408 13.5637 29.1319 13.0705 29.295 12.5286C29.4582 11.9866 29.4885 11.4123 29.3833 10.8557C29.2781 10.2991 29.0406 9.77709 28.6915 9.3352C28.3424 8.89332 27.8923 8.54496 27.3804 8.32049L27.6011 8.09607C28.1442 7.53259 28.4824 6.79785 28.5599 6.01285C28.6374 5.22786 28.4496 4.43943 28.0275 3.77745C27.6054 3.11546 26.9741 2.61939 26.2376 2.37095C25.5012 2.12251 24.7034 2.13652 23.9758 2.41067C23.797 1.84412 23.4779 1.33382 23.0492 0.928739C22.6205 0.52366 22.0967 0.237398 21.5279 0.0974261C20.9591 -0.0425462 20.3644 -0.0315311 19.801 0.129414C19.2376 0.29036 18.7244 0.595833 18.3105 1.01652L10.3074 9.14678L10.4579 8.57892C10.7979 7.2803 10.6169 5.89758 9.95466 4.73459C9.29244 3.57161 8.20319 2.72351 6.92628 2.37666C6.45488 2.24998 5.95332 2.31842 5.53145 2.56698C5.10958 2.81554 4.8018 3.22397 4.67552 3.7028L0.364639 20.0993C-0.249337 22.449 -0.0845891 24.939 0.833392 27.1839C1.75137 29.4288 3.37142 31.3035 5.44285 32.518C7.51429 33.7325 9.92165 34.2191 12.2925 33.9024C14.6633 33.5858 16.8653 32.4835 18.558 30.7663L28.8753 20.2762C29.5149 19.6246 29.8742 18.7417 29.8742 17.8211C29.8742 16.9005 29.5149 16.0176 28.8753 15.366ZM27.357 18.7324L17.0497 29.2395C15.6921 30.6277 13.9212 31.5203 12.0127 31.7784C10.1041 32.0365 8.16524 31.6456 6.49805 30.6664C4.83085 29.6873 3.52898 28.175 2.79525 26.3652C2.06152 24.5554 1.93714 22.5496 2.44149 20.6604L6.66207 4.5801C7.31478 4.83617 7.85136 5.3285 8.16867 5.96245C8.48598 6.5964 8.56163 7.32723 8.38107 8.01446L7.20051 12.5131C7.13936 12.7456 7.15547 12.9921 7.24633 13.2142C7.33719 13.4364 7.49771 13.6218 7.70292 13.7417C7.90814 13.8615 8.14655 13.909 8.38108 13.8769C8.61561 13.8447 8.83312 13.7347 8.99978 13.5638L19.8255 2.55348C20.0669 2.31902 20.3879 2.18818 20.7218 2.18818C21.0556 2.18818 21.3766 2.31902 21.6181 2.55348C21.7358 2.67315 21.8291 2.81522 21.8928 2.97159C21.9565 3.12795 21.9893 3.29553 21.9893 3.46478C21.9893 3.63402 21.9565 3.80161 21.8928 3.95797C21.8291 4.11433 21.7358 4.2564 21.6181 4.37607L13.4779 12.6525C13.2765 12.8573 13.1634 13.1349 13.1634 13.4244C13.1634 13.7139 13.2765 13.9916 13.4779 14.1963C13.6792 14.401 13.9523 14.516 14.237 14.516C14.5218 14.516 14.7949 14.401 14.9962 14.1963L23.1364 5.91984L24.2935 4.75691C24.405 4.61617 24.5443 4.50084 24.7025 4.41839C24.8606 4.33595 25.0341 4.28824 25.2115 4.27836C25.389 4.26849 25.5665 4.29667 25.7325 4.36107C25.8986 4.42547 26.0495 4.52466 26.1754 4.65219C26.3013 4.77972 26.3994 4.93275 26.4634 5.10134C26.5273 5.26993 26.5557 5.45031 26.5467 5.63078C26.5376 5.81124 26.4913 5.98775 26.4108 6.14886C26.3304 6.30996 26.2174 6.45205 26.0794 6.56591L23.618 9.06857L15.926 16.8894C15.7785 17.0446 15.6796 17.2407 15.6417 17.453C15.6038 17.6653 15.6287 17.8843 15.7132 18.0822C15.7976 18.2802 15.9379 18.4482 16.1162 18.5652C16.2946 18.6821 16.503 18.7427 16.7152 18.7392C16.8563 18.7401 16.9962 18.7124 17.1266 18.6575C17.257 18.6026 17.3752 18.5217 17.4744 18.4196L25.1664 10.6157C25.2841 10.4961 25.4239 10.4011 25.5776 10.3364C25.7314 10.2716 25.8963 10.2382 26.0627 10.2382C26.2292 10.2382 26.394 10.2716 26.5478 10.3364C26.7016 10.4011 26.8413 10.4961 26.959 10.6157C27.0767 10.7354 27.1701 10.8775 27.2338 11.0338C27.2975 11.1902 27.3303 11.3578 27.3303 11.527C27.3303 11.6963 27.2975 11.8639 27.2338 12.0202C27.1701 12.1766 27.0767 12.3187 26.959 12.4383L24.0461 15.366L18.1165 21.3983C17.9303 21.6059 17.8301 21.8785 17.8366 22.1594C17.8432 22.4403 17.956 22.7078 18.1516 22.9063C18.3472 23.1047 18.6106 23.2188 18.8868 23.2249C19.1631 23.2309 19.431 23.1284 19.6348 22.9386L25.5644 16.9098C25.8021 16.6681 26.1245 16.5323 26.4607 16.5323C26.7969 16.5323 27.1193 16.6681 27.357 16.9098C27.5947 17.1515 27.7282 17.4793 27.7282 17.8211C27.7282 18.1629 27.5947 18.4907 27.357 18.7324V18.7324Z" fill="#3A3A4E"/>
</svg>
