<svg width="119" height="76" viewBox="0 0 119 76" fill="none" xmlns="http://www.w3.org/2000/svg">
<path d="M111.63 16.2911C110.739 16.2909 109.857 16.4606 109.03 16.7911V14.9411C109.029 13.7983 108.749 12.6731 108.214 11.6636C107.678 10.6541 106.903 9.79108 105.957 9.14991C105.011 8.50875 103.923 8.10891 102.787 7.98536C101.651 7.86181 100.502 8.01828 99.4399 8.44111V7.79112C99.4353 6.19219 98.8835 4.64305 97.8762 3.40132C96.8689 2.15959 95.4668 1.30012 93.9032 0.965893C92.3396 0.631668 90.7087 0.842818 89.2817 1.56422C87.8548 2.28562 86.7178 3.47382 86.0599 4.93113C84.9937 4.38091 83.8039 4.114 82.6048 4.15602C81.4057 4.19804 80.2375 4.54758 79.2123 5.17109C78.1872 5.7946 77.3396 6.67115 76.7508 7.71659C76.162 8.76204 75.8518 9.94127 75.85 11.1411V34.3411L75.2599 33.3411C74.587 32.1755 73.6907 31.1541 72.6224 30.3355C71.554 29.5169 70.3346 28.9172 69.0341 28.5707C67.7335 28.2242 66.3774 28.1377 65.0433 28.3163C63.7093 28.4948 62.4236 28.9348 61.2599 29.6111C60.5437 30.0349 59.9854 30.681 59.67 31.4511C59.363 30.6789 58.8069 30.0313 58.09 29.6111C56.9263 28.9348 55.6406 28.4948 54.3066 28.3163C52.9726 28.1377 51.6164 28.2242 50.3159 28.5707C49.0153 28.9172 47.7959 29.5169 46.7275 30.3355C45.6592 31.1541 44.7629 32.1755 44.09 33.3411L43.49 34.3411V11.1411C43.49 9.28461 42.7525 7.50414 41.4397 6.19139C40.1269 4.87863 38.3465 4.14112 36.49 4.14112C35.3727 4.13817 34.2713 4.4058 33.28 4.92112C32.6221 3.46381 31.4851 2.27564 30.0582 1.55424C28.6312 0.832839 27.0003 0.621689 25.4367 0.955914C23.8731 1.29014 22.4711 2.14958 21.4637 3.39131C20.4564 4.63304 19.9046 6.18218 19.9 7.78111V8.43113C18.8378 8.00621 17.6876 7.84809 16.5502 7.97062C15.4127 8.09316 14.3227 8.49261 13.3754 9.13401C12.4281 9.77542 11.6524 10.6392 11.1163 11.6499C10.5801 12.6605 10.2999 13.7871 10.3 14.9311V16.7811C9.23831 16.3583 8.0892 16.2018 6.95312 16.3254C5.81705 16.4489 4.7285 16.8487 3.78253 17.4899C2.83657 18.1311 2.06196 18.9941 1.52637 20.0036C0.990769 21.0131 0.710487 22.1383 0.709961 23.2811V53.1911C0.716616 57.0964 1.74686 60.9316 3.698 64.3145C5.64913 67.6974 8.45297 70.5098 11.83 72.4711C16.9493 75.4208 23.0294 76.2204 28.7374 74.6945C34.4453 73.1687 39.3153 69.4419 42.28 64.3311L59.41 34.7211C59.4941 34.5746 59.5644 34.4206 59.6199 34.2611C59.6797 34.4189 59.7499 34.5726 59.83 34.7211L76.96 64.3311C79.9246 69.4419 84.7946 73.1687 90.5026 74.6945C96.2105 76.2204 102.291 75.4208 107.41 72.4711C110.787 70.5098 113.591 67.6974 115.542 64.3145C117.493 60.9316 118.523 57.0964 118.53 53.1911V23.2911C118.53 21.4518 117.806 19.6863 116.515 18.3764C115.224 17.0665 113.469 16.3174 111.63 16.2911ZM38.5599 62.1511C36.5905 65.5583 33.552 68.2205 29.9156 69.7251C26.2791 71.2296 22.2478 71.4923 18.4468 70.4726C14.6458 69.4528 11.2875 67.2075 8.89246 64.0849C6.49741 60.9622 5.19948 57.1365 5.19995 53.2011V23.2911C5.17794 22.9368 5.22872 22.5817 5.34918 22.2478C5.46964 21.9138 5.65726 21.6081 5.90039 21.3494C6.14352 21.0907 6.43704 20.8845 6.76288 20.7436C7.08872 20.6026 7.43997 20.5299 7.79498 20.5299C8.14999 20.5299 8.50125 20.6026 8.82709 20.7436C9.15293 20.8845 9.44645 21.0907 9.68958 21.3494C9.9327 21.6081 10.1203 21.9138 10.2407 22.2478C10.3612 22.5817 10.412 22.9368 10.39 23.2911V40.4811C10.39 41.0646 10.6217 41.6242 11.0343 42.0368C11.4469 42.4493 12.0065 42.6811 12.59 42.6811C13.1734 42.6811 13.733 42.4493 14.1456 42.0368C14.5581 41.6242 14.79 41.0646 14.79 40.4811V23.2911V14.9411C14.79 14.2515 15.0639 13.5902 15.5515 13.1026C16.0391 12.615 16.7004 12.3411 17.39 12.3411C18.0795 12.3411 18.7409 12.615 19.2285 13.1026C19.716 13.5902 19.99 14.2515 19.99 14.9411V37.1811C19.99 37.7646 20.2218 38.3242 20.6343 38.7368C21.0469 39.1493 21.6065 39.3811 22.1899 39.3811C22.7734 39.3811 23.333 39.1493 23.7456 38.7368C24.1582 38.3242 24.39 37.7646 24.39 37.1811V7.79112C24.431 7.13073 24.7223 6.51082 25.2044 6.05769C25.6866 5.60456 26.3233 5.35228 26.985 5.35228C27.6466 5.35228 28.2834 5.60456 28.7656 6.05769C29.2477 6.51082 29.5389 7.13073 29.58 7.79112V34.7911C29.58 35.3746 29.8117 35.9342 30.2243 36.3468C30.6369 36.7593 31.1965 36.9911 31.78 36.9911C32.3634 36.9911 32.923 36.7593 33.3356 36.3468C33.7481 35.9342 33.98 35.3746 33.98 34.7911V11.1911C34.021 10.5307 34.3122 9.91082 34.7944 9.45768C35.2765 9.00455 35.9133 8.7523 36.575 8.7523C37.2366 8.7523 37.8734 9.00455 38.3555 9.45768C38.8377 9.91082 39.129 10.5307 39.17 11.1911V42.5811C39.1682 43.0669 39.3272 43.5397 39.6223 43.9256C39.9173 44.3116 40.3318 44.589 40.8011 44.7146C41.2705 44.8402 41.7681 44.8069 42.2166 44.62C42.665 44.433 43.0389 44.1029 43.28 43.6811L47.97 35.5611C48.6932 34.3219 49.8473 33.3923 51.2122 32.9496C52.577 32.5069 54.057 32.5822 55.3699 33.1611L38.5599 62.1511ZM114.22 53.2011C114.22 57.1365 112.923 60.9622 110.527 64.0849C108.132 67.2075 104.774 69.4528 100.973 70.4726C97.1721 71.4923 93.1408 71.2296 89.5043 69.7251C85.8679 68.2205 82.8294 65.5583 80.86 62.1511L64.0599 33.1511C65.371 32.5706 66.8503 32.4944 68.2141 32.9373C69.5779 33.3802 70.7301 34.311 71.45 35.5511L76.15 43.6711C76.3933 44.0879 76.7668 44.4132 77.2132 44.5968C77.6596 44.7803 78.1539 44.812 78.6201 44.687C79.0862 44.5619 79.4983 44.287 79.7928 43.9047C80.0874 43.5223 80.248 43.0537 80.2499 42.5711V11.1411C80.291 10.4807 80.5822 9.86083 81.0644 9.4077C81.5465 8.95456 82.1833 8.70228 82.845 8.70228C83.5066 8.70228 84.1434 8.95456 84.6255 9.4077C85.1077 9.86083 85.3989 10.4807 85.4399 11.1411V34.7411C85.4399 35.3246 85.6718 35.8842 86.0844 36.2968C86.4969 36.7093 87.0565 36.9411 87.64 36.9411C88.2234 36.9411 88.783 36.7093 89.1956 36.2968C89.6082 35.8842 89.84 35.3246 89.84 34.7411V7.74113C89.84 7.05157 90.1139 6.39022 90.6015 5.90263C91.0891 5.41504 91.7504 5.14112 92.4399 5.14112C93.1295 5.14112 93.7908 5.41504 94.2784 5.90263C94.766 6.39022 95.04 7.05157 95.04 7.74113V37.1311C95.04 37.7146 95.2717 38.2742 95.6843 38.6867C96.0969 39.0993 96.6565 39.3311 97.24 39.3311C97.8235 39.3311 98.383 39.0993 98.7956 38.6867C99.2082 38.2742 99.4399 37.7146 99.4399 37.1311V14.9411C99.4179 14.5868 99.4688 14.2317 99.5892 13.8977C99.7097 13.5638 99.8973 13.2581 100.14 12.9994C100.384 12.7407 100.677 12.5345 101.003 12.3936C101.329 12.2527 101.68 12.1799 102.035 12.1799C102.39 12.1799 102.741 12.2527 103.067 12.3936C103.393 12.5345 103.686 12.7407 103.93 12.9994C104.173 13.2581 104.36 13.5638 104.481 13.8977C104.601 14.2317 104.652 14.5868 104.63 14.9411V23.2911V40.4811C104.63 41.0646 104.862 41.6242 105.274 42.0368C105.687 42.4493 106.246 42.6811 106.83 42.6811C107.413 42.6811 107.973 42.4493 108.386 42.0368C108.798 41.6242 109.03 41.0646 109.03 40.4811V23.2911C109.008 22.9368 109.059 22.5817 109.179 22.2478C109.3 21.9138 109.487 21.6081 109.73 21.3494C109.973 21.0907 110.267 20.8845 110.593 20.7436C110.919 20.6026 111.27 20.5299 111.625 20.5299C111.98 20.5299 112.331 20.6026 112.657 20.7436C112.983 20.8845 113.276 21.0907 113.52 21.3494C113.763 21.6081 113.95 21.9138 114.071 22.2478C114.191 22.5817 114.242 22.9368 114.22 23.2911V53.2011Z" fill="#3A3A4E"/>
</svg>
