<svg width="144" height="96" viewBox="0 0 144 96" fill="none" xmlns="http://www.w3.org/2000/svg">
<path d="M35.06 93.2812C27.084 93.2759 19.4367 90.103 13.7996 84.4603C8.16257 78.8177 4.99735 71.1672 5 63.1912V33.2912C5.00112 30.0571 6.05875 26.9119 8.0119 24.3341C9.96506 21.7564 12.7068 19.8873 15.82 19.0112C16.7582 16.8859 18.1813 15.0101 19.9752 13.534C21.7691 12.0579 23.8839 11.0226 26.15 10.5112C27.2103 8.63416 28.6684 7.01179 30.422 5.75786C32.1756 4.50394 34.1823 3.64883 36.3013 3.25246C38.4204 2.85609 40.6005 2.92807 42.6888 3.46337C44.7771 3.99866 46.7229 4.98431 48.39 6.35118H48.62C52.5409 6.35648 56.2997 7.91641 59.0723 10.6889C61.8448 13.4614 63.4047 17.2203 63.41 21.1412V30.4812C63.96 30.4312 64.5 30.4112 65.06 30.4112C68.2199 30.4175 71.323 31.2519 74.06 32.8312C76.7139 34.3701 78.6495 36.8984 79.4424 39.862C80.2354 42.8256 79.8209 45.9826 78.29 48.6412L61.15 78.2612C58.4963 82.8293 54.6899 86.6207 50.1115 89.2565C45.5331 91.8923 40.3429 93.2801 35.06 93.2812Z" fill="white"/>
<path d="M108.36 93.281C103.084 93.2767 97.9012 91.8895 93.3287 89.2576C88.7561 86.6256 84.9534 82.841 82.2998 78.281L65.1497 48.6511C63.6148 45.9928 63.1971 42.8342 63.9883 39.8684C64.7794 36.9025 66.7147 34.3716 69.3697 32.831C72.1069 31.2522 75.2098 30.4178 78.3697 30.411C78.9197 30.411 79.4697 30.411 80.0097 30.481V21.141C80.015 17.2184 81.5763 13.458 84.351 10.6852C87.1257 7.91243 90.887 6.35368 94.8097 6.35103H95.0297C96.6977 4.98403 98.6443 3.99832 100.733 3.46297C102.822 2.92762 105.003 2.85558 107.123 3.25191C109.243 3.64825 111.25 4.50336 113.005 5.75732C114.759 7.01128 116.218 8.63375 117.28 10.511C119.544 11.0231 121.657 12.0588 123.45 13.5349C125.242 15.011 126.663 16.8865 127.6 19.011C130.71 19.8847 133.451 21.7504 135.404 24.3245C137.357 26.8985 138.416 30.0399 138.42 33.271V63.171C138.422 67.1207 137.647 71.0322 136.137 74.6822C134.628 78.3321 132.415 81.6489 129.623 84.4431C126.832 87.2374 123.517 89.4543 119.869 90.9673C116.22 92.4803 112.309 93.2597 108.36 93.261V93.281Z" fill="white"/>
<path d="M123.63 26.2911C122.739 26.2909 121.857 26.4606 121.03 26.7911V24.9411C121.029 23.7983 120.749 22.6731 120.214 21.6636C119.678 20.6541 118.903 19.7911 117.957 19.1499C117.011 18.5087 115.923 18.1089 114.787 17.9854C113.651 17.8618 112.502 18.0183 111.44 18.4411V17.7911C111.435 16.1922 110.884 14.643 109.876 13.4013C108.869 12.1596 107.467 11.3001 105.903 10.9659C104.34 10.6317 102.709 10.8428 101.282 11.5642C99.8548 12.2856 98.7178 13.4738 98.0599 14.9311C96.9937 14.3809 95.8039 14.114 94.6048 14.156C93.4057 14.198 92.2375 14.5476 91.2123 15.1711C90.1872 15.7946 89.3396 16.6712 88.7508 17.7166C88.162 18.762 87.8518 19.9413 87.85 21.1411V44.3411L87.2599 43.3411C86.587 42.1755 85.6907 41.1541 84.6224 40.3355C83.554 39.5169 82.3346 38.9172 81.0341 38.5707C79.7335 38.2242 78.3774 38.1377 77.0433 38.3163C75.7093 38.4948 74.4236 38.9348 73.2599 39.6111C72.5437 40.0349 71.9854 40.681 71.67 41.4511C71.363 40.6789 70.8069 40.0313 70.09 39.6111C68.9263 38.9348 67.6406 38.4948 66.3066 38.3163C64.9726 38.1377 63.6164 38.2242 62.3159 38.5707C61.0153 38.9172 59.7959 39.5169 58.7275 40.3355C57.6592 41.1541 56.7629 42.1755 56.09 43.3411L55.49 44.3411V21.1411C55.49 19.2846 54.7525 17.5041 53.4397 16.1914C52.1269 14.8786 50.3465 14.1411 48.49 14.1411C47.3727 14.1382 46.2713 14.4058 45.28 14.9211C44.6221 13.4638 43.4851 12.2756 42.0582 11.5542C40.6312 10.8328 39.0003 10.6217 37.4367 10.9559C35.8731 11.2901 34.4711 12.1496 33.4637 13.3913C32.4564 14.633 31.9046 16.1822 31.9 17.7811V18.4311C30.8378 18.0062 29.6876 17.8481 28.5502 17.9706C27.4127 18.0932 26.3227 18.4926 25.3754 19.134C24.4281 19.7754 23.6524 20.6392 23.1163 21.6499C22.5801 22.6605 22.2999 23.7871 22.3 24.9311V26.7811C21.2383 26.3583 20.0892 26.2018 18.9531 26.3254C17.817 26.4489 16.7285 26.8487 15.7825 27.4899C14.8366 28.1311 14.062 28.9941 13.5264 30.0036C12.9908 31.0131 12.7105 32.1383 12.71 33.2811V63.1911C12.7166 67.0964 13.7469 70.9316 15.698 74.3145C17.6491 77.6974 20.453 80.5098 23.83 82.4711C28.9493 85.4208 35.0294 86.2204 40.7374 84.6945C46.4453 83.1687 51.3153 79.4419 54.28 74.3311L71.41 44.7211C71.4941 44.5746 71.5644 44.4206 71.6199 44.2611C71.6797 44.4189 71.7499 44.5726 71.83 44.7211L88.96 74.3311C91.9246 79.4419 96.7946 83.1687 102.503 84.6945C108.211 86.2204 114.291 85.4208 119.41 82.4711C122.787 80.5098 125.591 77.6974 127.542 74.3145C129.493 70.9316 130.523 67.0964 130.53 63.1911V33.2911C130.53 31.4518 129.806 29.6863 128.515 28.3764C127.224 27.0665 125.469 26.3174 123.63 26.2911ZM50.5599 72.1511C48.5905 75.5583 45.552 78.2205 41.9156 79.7251C38.2791 81.2296 34.2478 81.4923 30.4468 80.4726C26.6458 79.4528 23.2875 77.2075 20.8925 74.0849C18.4974 70.9622 17.1995 67.1365 17.2 63.2011V33.2911C17.1779 32.9368 17.2287 32.5817 17.3492 32.2478C17.4696 31.9138 17.6573 31.6081 17.9004 31.3494C18.1435 31.0907 18.437 30.8845 18.7629 30.7436C19.0887 30.6026 19.44 30.5299 19.795 30.5299C20.15 30.5299 20.5012 30.6026 20.8271 30.7436C21.1529 30.8845 21.4464 31.0907 21.6896 31.3494C21.9327 31.6081 22.1203 31.9138 22.2407 32.2478C22.3612 32.5817 22.412 32.9368 22.39 33.2911V50.4811C22.39 51.0646 22.6217 51.6242 23.0343 52.0368C23.4469 52.4493 24.0065 52.6811 24.59 52.6811C25.1734 52.6811 25.733 52.4493 26.1456 52.0368C26.5581 51.6242 26.79 51.0646 26.79 50.4811V33.2911V24.9411C26.79 24.2515 27.0639 23.5902 27.5515 23.1026C28.0391 22.615 28.7004 22.3411 29.39 22.3411C30.0795 22.3411 30.7409 22.615 31.2285 23.1026C31.716 23.5902 31.99 24.2515 31.99 24.9411V47.1811C31.99 47.7646 32.2218 48.3242 32.6343 48.7368C33.0469 49.1493 33.6065 49.3811 34.1899 49.3811C34.7734 49.3811 35.333 49.1493 35.7456 48.7368C36.1582 48.3242 36.39 47.7646 36.39 47.1811V17.7911C36.431 17.1307 36.7223 16.5108 37.2044 16.0577C37.6866 15.6046 38.3233 15.3523 38.985 15.3523C39.6466 15.3523 40.2834 15.6046 40.7656 16.0577C41.2477 16.5108 41.5389 17.1307 41.58 17.7911V44.7911C41.58 45.3746 41.8117 45.9342 42.2243 46.3468C42.6369 46.7593 43.1965 46.9911 43.78 46.9911C44.3634 46.9911 44.923 46.7593 45.3356 46.3468C45.7481 45.9342 45.98 45.3746 45.98 44.7911V21.1911C46.021 20.5307 46.3122 19.9108 46.7944 19.4577C47.2765 19.0045 47.9133 18.7523 48.575 18.7523C49.2366 18.7523 49.8734 19.0045 50.3555 19.4577C50.8377 19.9108 51.129 20.5307 51.17 21.1911V52.5811C51.1682 53.0669 51.3272 53.5397 51.6223 53.9256C51.9173 54.3116 52.3318 54.589 52.8011 54.7146C53.2705 54.8402 53.7681 54.8069 54.2166 54.62C54.665 54.433 55.0389 54.1029 55.28 53.6811L59.97 45.5611C60.6932 44.3219 61.8473 43.3923 63.2122 42.9496C64.577 42.5069 66.057 42.5822 67.3699 43.1611L50.5599 72.1511ZM126.22 63.2011C126.22 67.1365 124.923 70.9622 122.527 74.0849C120.132 77.2075 116.774 79.4528 112.973 80.4726C109.172 81.4923 105.141 81.2296 101.504 79.7251C97.8679 78.2205 94.8294 75.5583 92.86 72.1511L76.0599 43.1511C77.371 42.5706 78.8503 42.4944 80.2141 42.9373C81.5779 43.3802 82.7301 44.311 83.45 45.5511L88.15 53.6711C88.3933 54.0879 88.7668 54.4132 89.2132 54.5968C89.6596 54.7803 90.1539 54.812 90.6201 54.687C91.0862 54.5619 91.4983 54.287 91.7928 53.9047C92.0874 53.5223 92.248 53.0537 92.2499 52.5711V21.1411C92.291 20.4807 92.5822 19.8608 93.0644 19.4077C93.5465 18.9546 94.1833 18.7023 94.845 18.7023C95.5066 18.7023 96.1434 18.9546 96.6255 19.4077C97.1077 19.8608 97.3989 20.4807 97.4399 21.1411V44.7411C97.4399 45.3246 97.6718 45.8842 98.0844 46.2968C98.4969 46.7093 99.0565 46.9411 99.64 46.9411C100.223 46.9411 100.783 46.7093 101.196 46.2968C101.608 45.8842 101.84 45.3246 101.84 44.7411V17.7411C101.84 17.0516 102.114 16.3902 102.602 15.9026C103.089 15.415 103.75 15.1411 104.44 15.1411C105.13 15.1411 105.791 15.415 106.278 15.9026C106.766 16.3902 107.04 17.0516 107.04 17.7411V47.1311C107.04 47.7146 107.272 48.2742 107.684 48.6867C108.097 49.0993 108.657 49.3311 109.24 49.3311C109.823 49.3311 110.383 49.0993 110.796 48.6867C111.208 48.2742 111.44 47.7146 111.44 47.1311V24.9411C111.418 24.5868 111.469 24.2317 111.589 23.8977C111.71 23.5638 111.897 23.2581 112.14 22.9994C112.384 22.7407 112.677 22.5345 113.003 22.3936C113.329 22.2527 113.68 22.1799 114.035 22.1799C114.39 22.1799 114.741 22.2527 115.067 22.3936C115.393 22.5345 115.686 22.7407 115.93 22.9994C116.173 23.2581 116.36 23.5638 116.481 23.8977C116.601 24.2317 116.652 24.5868 116.63 24.9411V33.2911V50.4811C116.63 51.0646 116.862 51.6242 117.274 52.0368C117.687 52.4493 118.246 52.6811 118.83 52.6811C119.413 52.6811 119.973 52.4493 120.386 52.0368C120.798 51.6242 121.03 51.0646 121.03 50.4811V33.2911C121.008 32.9368 121.059 32.5817 121.179 32.2478C121.3 31.9138 121.487 31.6081 121.73 31.3494C121.973 31.0907 122.267 30.8845 122.593 30.7436C122.919 30.6026 123.27 30.5299 123.625 30.5299C123.98 30.5299 124.331 30.6026 124.657 30.7436C124.983 30.8845 125.276 31.0907 125.52 31.3494C125.763 31.6081 125.95 31.9138 126.071 32.2478C126.191 32.5817 126.242 32.9368 126.22 33.2911V63.2011Z" fill="#3A3A4E"/>
<path d="M46.5202 53.8911C42.6665 53.8964 38.9723 55.4303 36.2483 58.1562C33.5242 60.8821 31.9929 64.5774 31.9902 68.4311C31.9902 69.0146 32.222 69.5742 32.6346 69.9868C33.0472 70.3993 33.6067 70.6311 34.1902 70.6311C34.7737 70.6311 35.3333 70.3993 35.7458 69.9868C36.1584 69.5742 36.3902 69.0146 36.3902 68.4311C36.3902 65.7436 37.4572 63.1659 39.3566 61.2646C41.2561 59.3633 43.8326 58.2938 46.5202 58.2911C46.8091 58.2911 47.0952 58.2342 47.3621 58.1237C47.629 58.0131 47.8716 57.851 48.0759 57.6467C48.2802 57.4424 48.4422 57.1999 48.5527 56.933C48.6633 56.6661 48.7202 56.38 48.7202 56.0911C48.7202 55.8022 48.6633 55.5161 48.5527 55.2492C48.4422 54.9823 48.2802 54.7398 48.0759 54.5355C47.8716 54.3312 47.629 54.1691 47.3621 54.0586C47.0952 53.948 46.8091 53.8911 46.5202 53.8911Z" fill="#3A3A4E"/>
<path d="M96.9002 53.8911C96.3167 53.8911 95.7571 54.1229 95.3445 54.5355C94.932 54.948 94.7002 55.5076 94.7002 56.0911C94.7002 56.6746 94.932 57.2341 95.3445 57.6467C95.7571 58.0593 96.3167 58.2911 96.9002 58.2911C99.5887 58.2938 102.166 59.3629 104.067 61.264C105.968 63.165 107.038 65.7426 107.04 68.4311C107.04 69.0146 107.272 69.5742 107.685 69.9868C108.097 70.3993 108.657 70.6311 109.24 70.6311C109.824 70.6311 110.383 70.3993 110.796 69.9868C111.208 69.5742 111.44 69.0146 111.44 68.4311C111.438 64.5757 109.905 60.8789 107.179 58.1527C104.452 55.4265 100.756 53.8938 96.9002 53.8911Z" fill="#3A3A4E"/>
</svg>
