<svg width="28" height="28" viewBox="0 0 28 28" fill="none" xmlns="http://www.w3.org/2000/svg">
<path fill-rule="evenodd" clip-rule="evenodd" d="M7.37325 2.94267C7.37325 4.57005 8.68752 5.88533 10.3136 5.88533H13.254V2.94267C13.254 1.31528 11.9398 0 10.3136 0C8.68752 0 7.37325 1.31528 7.37325 2.94267ZM13.254 10.3216C13.254 8.69424 11.9398 7.37896 10.3136 7.37896H2.94039C1.31427 7.37896 0 8.69424 0 10.3216C0 11.949 1.31427 13.2643 2.94039 13.2643H10.3136C11.9398 13.2643 13.254 11.949 13.254 10.3216ZM2.96284 20.6433C4.58897 20.6433 5.90323 19.3281 5.90323 17.7007V14.758H2.96284C1.33671 14.758 0.022447 16.0733 0.022447 17.7007C0.022447 19.3281 1.33671 20.6433 2.96284 20.6433ZM10.3138 14.758C8.68769 14.758 7.37343 16.0733 7.37343 17.7007V25.0573C7.37343 26.6847 8.68769 28 10.3138 28C11.9399 28 13.2542 26.6847 13.2542 25.0573V17.7007C13.2542 16.0733 11.9399 14.758 10.3138 14.758ZM22.0969 10.3216C22.0969 8.69424 23.4112 7.37896 25.0373 7.37896C26.6635 7.37896 27.9777 8.69424 27.9777 10.3216C27.9777 11.949 26.6635 13.2643 25.0373 13.2643H22.0969V10.3216ZM20.6267 10.3216C20.6267 11.949 19.3125 13.2643 17.6863 13.2643C16.0602 13.2643 14.746 11.949 14.746 10.3216V2.94267C14.746 1.31528 16.0602 0 17.6863 0C19.3125 0 20.6267 1.31528 20.6267 2.94267V10.3216ZM20.6267 25.0573C20.6267 23.43 19.3125 22.1147 17.6863 22.1147H14.746V25.0573C14.746 26.6847 16.0602 28 17.6863 28C19.3125 28 20.6267 26.6847 20.6267 25.0573ZM14.746 17.7007C14.746 19.3281 16.0602 20.6433 17.6863 20.6433H25.0596C26.6857 20.6433 28 19.3281 28 17.7007C28 16.0733 26.6857 14.758 25.0596 14.758H17.6863C16.0602 14.758 14.746 16.0733 14.746 17.7007Z" fill="#3A3A4E"/>
</svg>
