<svg width="204" height="36" viewBox="0 0 204 36" fill="none" xmlns="http://www.w3.org/2000/svg">
<path d="M18 25.9049L24.225 29.6699C25.365 30.3599 26.76 29.3399 26.46 28.0499L24.81 20.9699L30.315 16.1999C31.32 15.3299 30.78 13.6799 29.46 13.5749L22.215 12.9599L19.38 6.26989C18.87 5.05489 17.13 5.05489 16.62 6.26989L13.785 12.9449L6.53999 13.5599C5.21999 13.6649 4.67999 15.3149 5.68499 16.1849L11.19 20.9549L9.53999 28.0349C9.23999 29.3249 10.635 30.3449 11.775 29.6549L18 25.9049Z" fill="#FC895B"/>
<path d="M60 25.9049L66.225 29.6699C67.365 30.3599 68.76 29.3399 68.46 28.0499L66.81 20.9699L72.315 16.1999C73.32 15.3299 72.78 13.6799 71.46 13.5749L64.215 12.9599L61.38 6.26989C60.87 5.05489 59.13 5.05489 58.62 6.26989L55.785 12.9449L48.54 13.5599C47.22 13.6649 46.68 15.3149 47.685 16.1849L53.19 20.9549L51.54 28.0349C51.24 29.3249 52.635 30.3449 53.775 29.6549L60 25.9049Z" fill="#FC895B"/>
<path d="M102 25.9049L108.225 29.6699C109.365 30.3599 110.76 29.3399 110.46 28.0499L108.81 20.9699L114.315 16.1999C115.32 15.3299 114.78 13.6799 113.46 13.5749L106.215 12.9599L103.38 6.26989C102.87 5.05489 101.13 5.05489 100.62 6.26989L97.785 12.9449L90.54 13.5599C89.22 13.6649 88.68 15.3149 89.685 16.1849L95.19 20.9549L93.54 28.0349C93.24 29.3249 94.635 30.3449 95.775 29.6549L102 25.9049Z" fill="#FC895B"/>
<path d="M144 25.9049L150.225 29.6699C151.365 30.3599 152.76 29.3399 152.46 28.0499L150.81 20.9699L156.315 16.1999C157.32 15.3299 156.78 13.6799 155.46 13.5749L148.215 12.9599L145.38 6.26989C144.87 5.05489 143.13 5.05489 142.62 6.26989L139.785 12.9449L132.54 13.5599C131.22 13.6649 130.68 15.3149 131.685 16.1849L137.19 20.9549L135.54 28.0349C135.24 29.3249 136.635 30.3449 137.775 29.6549L144 25.9049Z" fill="#FC895B"/>
<path d="M186 25.9049L192.225 29.6699C193.365 30.3599 194.76 29.3399 194.46 28.0499L192.81 20.9699L198.315 16.1999C199.32 15.3299 198.78 13.6799 197.46 13.5749L190.215 12.9599L187.38 6.26989C186.87 5.05489 185.13 5.05489 184.62 6.26989L181.785 12.9449L174.54 13.5599C173.22 13.6649 172.68 15.3149 173.685 16.1849L179.19 20.9549L177.54 28.0349C177.24 29.3249 178.635 30.3449 179.775 29.6549L186 25.9049Z" fill="#FC895B"/>
</svg>
