<svg width="96" height="96" viewBox="0 0 96 96" fill="none" xmlns="http://www.w3.org/2000/svg">
<path d="M56.7823 90.1638C52.8305 90.1742 48.9159 89.401 45.265 87.8888C41.614 86.3766 38.2992 84.1554 35.5122 81.3538L14.3722 60.2338C12.076 57.9526 10.5904 54.9821 10.1425 51.7765C9.69462 48.571 10.3092 45.3069 11.8922 42.4838C11.2222 40.7523 10.883 38.9104 10.8922 37.0538C10.8837 34.2615 11.6711 31.5246 13.1623 29.1638C12.5842 27.0854 12.4681 24.9058 12.8222 22.7778C13.1762 20.6499 13.9918 18.6252 15.2116 16.846C16.4314 15.0668 18.0259 13.5762 19.8832 12.4788C21.7404 11.3814 23.8153 10.7039 25.9623 10.4938L26.1122 10.3338C27.4857 8.95984 29.1164 7.86993 30.9111 7.12633C32.7059 6.38273 34.6295 6 36.5722 6C38.5149 6 40.4386 6.38273 42.2334 7.12633C44.0281 7.86993 45.6588 8.95984 47.0323 10.3338L53.6422 16.9438C56.0185 14.0725 59.2309 12.0137 62.8322 11.0538C65.8 10.2561 68.963 10.6697 71.6259 12.2037C74.2887 13.7376 76.2334 16.2663 77.0323 19.2338L85.8922 52.3238C87.08 56.7799 87.2277 61.4494 86.3238 65.9717C85.4198 70.494 83.4884 74.7479 80.6789 78.405C77.8694 82.0622 74.2569 85.0246 70.1203 87.0634C65.9838 89.1023 61.434 90.163 56.8222 90.1638H56.7823Z" fill="white"/>
<path d="M78.3123 54.3338L69.4922 21.3338C69.2342 20.3663 68.6028 19.5406 67.7366 19.0382C66.8704 18.5357 65.8403 18.3975 64.8723 18.6538C62.2546 19.3549 60.0221 21.0659 58.6647 23.4113C57.3074 25.7567 56.936 28.5449 57.6323 31.1638L57.9423 32.3038L41.5423 15.9038C40.6973 15.0463 39.6455 14.4212 38.4884 14.0889C37.3313 13.7566 36.1081 13.7283 34.9369 14.0067C33.7657 14.2852 32.6861 14.8611 31.8024 15.6786C30.9187 16.4961 30.2608 17.5278 29.8923 18.6738C28.396 18.1092 26.7516 18.074 25.2325 18.574C23.7134 19.074 22.4113 20.0791 21.5429 21.422C20.6745 22.7649 20.2921 24.3647 20.4594 25.9552C20.6267 27.5457 21.3335 29.0309 22.4623 30.1638L22.9123 30.6238C22.0974 30.9727 21.3573 31.4752 20.7323 32.1038C20.0822 32.7538 19.5665 33.5255 19.2147 34.3749C18.8628 35.2242 18.6818 36.1345 18.6818 37.0538C18.6818 37.9731 18.8628 38.8834 19.2147 39.7327C19.5665 40.5821 20.0822 41.3538 20.7323 42.0038L22.0423 43.3138C21.2237 43.6614 20.4801 44.1639 19.8523 44.7938C19.2022 45.4438 18.6865 46.2155 18.3347 47.0649C17.9828 47.9142 17.8018 48.8245 17.8018 49.7438C17.8018 50.6631 17.9828 51.5734 18.3347 52.4227C18.6865 53.2721 19.2022 54.0438 19.8523 54.6938L41.0023 75.8338C44.4691 79.3002 48.9825 81.5264 53.843 82.1673C58.7034 82.8082 63.6395 81.828 67.8864 79.3788C72.1333 76.9295 75.4538 73.1479 77.3333 68.62C79.2128 64.092 79.5464 59.0706 78.2823 54.3338H78.3123ZM72.3123 69.0338C71.1433 71.0708 69.5813 72.8552 67.717 74.2835C65.8527 75.7117 63.7233 76.7554 61.4523 77.3538C58.4217 78.1587 55.2329 78.1547 52.2043 77.3423C49.1757 76.5299 46.4132 74.9374 44.1923 72.7238L22.9922 51.5738C22.7263 51.3387 22.5114 51.0517 22.3606 50.7305C22.2098 50.4092 22.1264 50.0605 22.1155 49.7057C22.1046 49.351 22.1664 48.9978 22.2971 48.6679C22.4279 48.3379 22.6248 48.0382 22.8758 47.7873C23.1267 47.5363 23.4264 47.3394 23.7563 47.2087C24.0863 47.0779 24.4395 47.0161 24.7942 47.027C25.1489 47.0379 25.4977 47.1213 25.819 47.2721C26.1402 47.4229 26.4272 47.6379 26.6623 47.9038L38.8223 60.0638C39.2386 60.457 39.7917 60.6723 40.3643 60.6641C40.9368 60.6559 41.4836 60.4249 41.8885 60.02C42.2934 59.6151 42.5244 59.0683 42.5326 58.4958C42.5408 57.9233 42.3254 57.3701 41.9323 56.9538L29.7823 44.7938L23.8923 38.8838C23.4068 38.3965 23.1342 37.7367 23.1342 37.0488C23.1342 36.3609 23.4068 35.7011 23.8923 35.2138C24.3796 34.7283 25.0394 34.4558 25.7273 34.4558C26.4152 34.4558 27.0749 34.7283 27.5623 35.2138L43.2923 50.9438C43.7056 51.3586 44.2667 51.5924 44.8523 51.5938C45.2857 51.5889 45.7081 51.4566 46.0669 51.2134C46.4257 50.9703 46.7051 50.6269 46.8703 50.2262C47.0355 49.8255 47.0792 49.385 46.996 48.9596C46.9128 48.5343 46.7063 48.1427 46.4023 47.8338L30.6723 32.1038L25.6723 27.1038C25.2339 26.6079 25.0012 25.9634 25.0215 25.3019C25.0419 24.6403 25.3138 24.0114 25.7818 23.5434C26.2498 23.0753 26.8788 22.8034 27.5403 22.7831C28.2019 22.7627 28.8464 22.9954 29.3423 23.4338L31.7123 25.8038L48.3923 42.4838C48.5951 42.6889 48.8364 42.8519 49.1024 42.9634C49.3684 43.075 49.6538 43.1329 49.9423 43.1338C50.3765 43.1308 50.8003 42.9999 51.1606 42.7575C51.521 42.5151 51.8019 42.1719 51.9683 41.7708C52.1347 41.3696 52.1793 40.9284 52.0964 40.5021C52.0135 40.0758 51.8069 39.6833 51.5023 39.3738L34.8123 22.6938C34.3262 22.2048 34.0533 21.5433 34.0533 20.8538C34.0533 20.1643 34.3262 19.5028 34.8123 19.0138C35.3086 18.5418 35.9673 18.2786 36.6523 18.2786C37.3372 18.2786 37.9959 18.5418 38.4922 19.0138L60.6823 41.2138C61.0246 41.5549 61.4697 41.7738 61.9489 41.8367C62.4281 41.8996 62.9146 41.803 63.3334 41.5617C63.7521 41.3205 64.0798 40.9481 64.2657 40.502C64.4517 40.0559 64.4856 39.5611 64.3622 39.0938L61.8923 29.9738C61.527 28.5868 61.6848 27.1138 62.3359 25.8357C62.9869 24.5577 64.0856 23.5638 65.4223 23.0438L74.0723 55.4638C74.6845 57.7328 74.8397 60.1009 74.529 62.4304C74.2183 64.76 73.4478 67.0046 72.2623 69.0338H72.3123Z" fill="#3A3A4E"/>
<path d="M61.402 45.4137C60.9894 45.0016 60.4302 44.77 59.847 44.77C59.2638 44.77 58.7045 45.0016 58.292 45.4137C55.574 48.1426 54.0479 51.8372 54.0479 55.6888C54.0479 59.5403 55.574 63.2349 58.292 65.9637C58.7083 66.3569 59.2614 66.5723 59.834 66.5641C60.4065 66.5559 60.9533 66.3248 61.3582 65.9199C61.763 65.5151 61.9941 64.9683 62.0023 64.3957C62.0105 63.8232 61.7951 63.27 61.402 62.8537C59.5059 60.9512 58.4412 58.3748 58.4412 55.6888C58.4412 53.0027 59.5059 50.4262 61.402 48.5237C61.8142 48.1112 62.0457 47.5519 62.0457 46.9688C62.0457 46.3856 61.8142 45.8263 61.402 45.4137Z" fill="#3A3A4E"/>
</svg>
