<svg width="63" height="70" viewBox="0 0 63 70" fill="none" xmlns="http://www.w3.org/2000/svg">
<path d="M61.3123 41.3338L52.4922 8.33381C52.2342 7.36625 51.6028 6.54061 50.7366 6.03815C49.8704 5.53569 48.8403 5.39745 47.8723 5.6538C45.2546 6.35487 43.0221 8.06589 41.6647 10.4113C40.3074 12.7567 39.936 15.5449 40.6323 18.1638L40.9423 19.3038L24.5423 2.9038C23.6973 2.04629 22.6455 1.42118 21.4884 1.08887C20.3313 0.75656 19.1081 0.728274 17.9369 1.00675C16.7657 1.28522 15.6861 1.86105 14.8024 2.67859C13.9187 3.49613 13.2608 4.52775 12.8923 5.6738C11.396 5.10921 9.75155 5.07399 8.23248 5.57399C6.71341 6.074 5.41131 7.07908 4.54291 8.422C3.67451 9.76493 3.29215 11.3647 3.45941 12.9552C3.62668 14.5457 4.33351 16.0309 5.46228 17.1638L5.91229 17.6238C5.09742 17.9727 4.35731 18.4752 3.7323 19.1038C3.08221 19.7538 2.56649 20.5255 2.21466 21.3749C1.86283 22.2242 1.68176 23.1345 1.68176 24.0538C1.68176 24.9731 1.86283 25.8834 2.21466 26.7327C2.56649 27.5821 3.08221 28.3538 3.7323 29.0038L5.0423 30.3138C4.22374 30.6614 3.4801 31.1639 2.85229 31.7938C2.20221 32.4438 1.68648 33.2155 1.33466 34.0649C0.982828 34.9142 0.801758 35.8245 0.801758 36.7438C0.801758 37.6631 0.982828 38.5734 1.33466 39.4227C1.68648 40.2721 2.20221 41.0438 2.85229 41.6938L24.0023 62.8338C27.4691 66.3002 31.9825 68.5264 36.843 69.1673C41.7034 69.8082 46.6395 68.828 50.8864 66.3788C55.1333 63.9295 58.4538 60.1479 60.3333 55.62C62.2128 51.092 62.5464 46.0706 61.2823 41.3338H61.3123ZM55.3123 56.0338C54.1433 58.0708 52.5813 59.8552 50.717 61.2835C48.8527 62.7117 46.7233 63.7554 44.4523 64.3538C41.4217 65.1587 38.2329 65.1547 35.2043 64.3423C32.1757 63.5299 29.4132 61.9374 27.1923 59.7238L5.99225 38.5738C5.72634 38.3387 5.51139 38.0517 5.3606 37.7305C5.2098 37.4092 5.12639 37.0605 5.11548 36.7057C5.10456 36.351 5.16636 35.9978 5.29712 35.6679C5.42788 35.3379 5.62484 35.0382 5.87579 34.7873C6.12675 34.5363 6.42641 34.3394 6.75635 34.2087C7.08628 34.0779 7.43946 34.0161 7.79419 34.027C8.14892 34.0379 8.4977 34.1213 8.81897 34.2721C9.14024 34.4229 9.42724 34.6379 9.66229 34.9038L21.8223 47.0638C22.2386 47.457 22.7917 47.6723 23.3643 47.6641C23.9368 47.6559 24.4836 47.4249 24.8885 47.02C25.2934 46.6151 25.5244 46.0683 25.5326 45.4958C25.5408 44.9233 25.3254 44.3701 24.9323 43.9538L12.7823 31.7938L6.89227 25.8838C6.4068 25.3965 6.13422 24.7367 6.13422 24.0488C6.13422 23.3609 6.4068 22.7011 6.89227 22.2138C7.37958 21.7283 8.03943 21.4558 8.72729 21.4558C9.41516 21.4558 10.0749 21.7283 10.5623 22.2138L26.2923 37.9438C26.7056 38.3586 27.2667 38.5924 27.8523 38.5938C28.2857 38.5889 28.7081 38.4566 29.0669 38.2134C29.4257 37.9703 29.7051 37.6269 29.8703 37.2262C30.0355 36.8255 30.0792 36.385 29.996 35.9596C29.9128 35.5343 29.7063 35.1427 29.4023 34.8338L13.6723 19.1038L8.6723 14.1038C8.23393 13.6079 8.00119 12.9634 8.02155 12.3019C8.0419 11.6403 8.31377 11.0114 8.7818 10.5434C9.24983 10.0753 9.87877 9.80341 10.5403 9.78306C11.2019 9.7627 11.8464 9.99543 12.3423 10.4338L14.7123 12.8038L31.3923 29.4838C31.5951 29.6889 31.8364 29.8519 32.1024 29.9634C32.3684 30.075 32.6538 30.1329 32.9423 30.1338C33.3765 30.1308 33.8003 29.9999 34.1606 29.7575C34.521 29.5151 34.8019 29.1719 34.9683 28.7708C35.1347 28.3696 35.1793 27.9284 35.0964 27.5021C35.0135 27.0758 34.8069 26.6833 34.5023 26.3738L17.8123 9.69381C17.3262 9.20479 17.0533 8.5433 17.0533 7.8538C17.0533 7.16429 17.3262 6.50281 17.8123 6.0138C18.3086 5.54178 18.9673 5.27855 19.6523 5.27855C20.3372 5.27855 20.9959 5.54178 21.4922 6.0138L43.6823 28.2138C44.0246 28.5549 44.4697 28.7738 44.9489 28.8367C45.4281 28.8996 45.9146 28.803 46.3334 28.5617C46.7521 28.3205 47.0798 27.9481 47.2657 27.502C47.4517 27.0559 47.4856 26.5611 47.3622 26.0938L44.8923 16.9738C44.527 15.5868 44.6848 14.1138 45.3359 12.8357C45.9869 11.5577 47.0856 10.5638 48.4223 10.0438L57.0723 42.4638C57.6845 44.7328 57.8397 47.1009 57.529 49.4304C57.2183 51.76 56.4478 54.0046 55.2623 56.0338H55.3123Z" fill="#3A3A4E"/>
</svg>
